<svg width="110" height="160" fill="none" xmlns="http://www.w3.org/2000/svg"><g opacity=".2" fill="#fff"><path d="M128.666 160H8.333C3.736 160 0 156.262 0 151.667V8.333C0 3.738 3.737 0 8.333 0h120.333c4.597 0 8.333 3.738 8.333 8.333v143.334c0 4.595-3.737 8.333-8.333 8.333zM8.333 3.335c-2.757 0-5 2.243-5 5v143.333c0 2.757 2.243 5 5 5h120.333c2.757 0 5-2.243 5-5V8.334c0-2.756-2.243-5-5-5H8.333z"/><path d="M38.023 81.69H22.336c-2.757 0-5-2.242-5-4.999V67.39c0-2.757 2.243-5 5-5h15.687a5.005 5.005 0 014.999 5v9.301c0 2.757-2.243 5-5 5zM22.336 65.723c-.918 0-1.666.748-1.666 1.666v9.302c0 .92.748 1.666 1.666 1.666h15.687c.917 0 1.666-.747 1.666-1.666v-9.302c0-.92-.749-1.666-1.666-1.666H22.336zM76.344 81.69h-15.69a5.005 5.005 0 01-4.999-4.999V67.39c0-2.757 2.243-5 5-5h15.69a5.005 5.005 0 014.999 5v9.301a5.004 5.004 0 01-5 5zM60.655 65.723a1.67 1.67 0 00-1.666 1.666v9.302c0 .92.749 1.666 1.666 1.666h15.69c.918 0 1.666-.747 1.666-1.666v-9.302c0-.92-.748-1.666-1.666-1.666h-15.69zm54.012 15.967H98.98c-2.757 0-5-2.242-5-4.999V67.39c0-2.757 2.243-5 5-5h15.687a5.005 5.005 0 014.999 5v9.301a5.004 5.004 0 01-4.999 5zM98.98 65.723c-.918 0-1.666.748-1.666 1.666v9.302c0 .92.748 1.666 1.666 1.666h15.687c.917 0 1.666-.747 1.666-1.666v-9.302c0-.92-.749-1.666-1.666-1.666H98.98zm-60.957 47.901H22.336c-2.757 0-5-2.243-5-4.999v-9.302c0-2.756 2.242-5 4.999-5H38.02c2.757 0 5 2.244 5 5v9.302a5.003 5.003 0 01-4.998 4.999zM22.336 97.656c-.918 0-1.666.747-1.666 1.666v9.301c0 .92.748 1.666 1.666 1.666h15.687c.917 0 1.666-.747 1.666-1.666v-9.3c0-.92-.749-1.666-1.666-1.666l-15.687-.001zm54.008 15.968h-15.69a5.005 5.005 0 01-4.999-4.999v-9.302c0-2.756 2.243-5 5-5h15.69a5.006 5.006 0 014.999 5v9.302a5.004 5.004 0 01-5 4.999zM60.655 97.656c-.917 0-1.666.747-1.666 1.666v9.301c0 .92.749 1.666 1.666 1.666h15.69c.918 0 1.666-.747 1.666-1.666v-9.3c0-.92-.748-1.666-1.666-1.666l-15.69-.001zm54.012 15.968H98.98c-2.757 0-5-2.243-5-4.999v-9.302c0-2.756 2.243-5 5-5h15.687a5.005 5.005 0 014.999 5v9.302a5.004 5.004 0 01-4.999 4.999zM98.98 97.656c-.918 0-1.666.747-1.666 1.666v9.301c0 .92.748 1.666 1.666 1.666h15.687c.917 0 1.666-.747 1.666-1.666l.001-9.3c0-.92-.748-1.666-1.666-1.666l-15.688-.001zm-60.957 47.905H22.336c-2.757 0-5-2.243-5-5v-9.301c0-2.757 2.243-5 5-5h15.687a5.005 5.005 0 014.999 5v9.301c0 2.757-2.243 5-5 5zm-15.687-15.968c-.918 0-1.666.747-1.666 1.666v9.301c0 .92.748 1.666 1.666 1.666h15.687c.917 0 1.666-.747 1.666-1.666v-9.301c0-.92-.749-1.666-1.666-1.666H22.336zm54.008 15.968h-15.69a5.005 5.005 0 01-4.999-5v-9.301c0-2.757 2.243-5 5-5h15.69a5.005 5.005 0 014.999 5v9.301a5.004 5.004 0 01-5 5zm-15.689-15.968c-.917 0-1.666.747-1.666 1.666v9.301c0 .92.749 1.666 1.666 1.666h15.69c.918 0 1.666-.747 1.666-1.666v-9.301c0-.92-.748-1.666-1.666-1.666h-15.69zm54.012 15.968H98.98c-2.757 0-5-2.243-5-5v-9.301c0-2.757 2.243-5 5-5h15.687a5.005 5.005 0 014.999 5v9.301a5.004 5.004 0 01-4.999 5zM98.98 129.593c-.918 0-1.666.747-1.666 1.666v9.301c0 .92.748 1.666 1.666 1.666h15.687c.917 0 1.666-.747 1.666-1.666v-9.301c0-.92-.749-1.666-1.666-1.666H98.98zm15.687-79.883H22.336c-2.757 0-5-2.242-5-4.999v-25.27a5.005 5.005 0 014.999-4.999h92.33c2.757 0 5 2.243 5 5V44.71a5.004 5.004 0 01-5 5h.002zM22.336 17.775c-.918 0-1.666.747-1.666 1.666V44.71c0 .92.748 1.666 1.666 1.666h92.331c.917 0 1.666-.747 1.666-1.666V19.44c0-.92-.749-1.666-1.666-1.666H22.336z"/></g></svg>