<svg width="93" height="177" fill="none" xmlns="http://www.w3.org/2000/svg"><g clip-path="url(#clip0_1_267)"><path d="M61.408 17.06c-2.853 4.891 2.52 13.134-2.895 14.846l.446-.444c3.268-4.002-3.563-12.47-.295-16.472a9.768 9.768 0 001.299-1.921" fill="#2F2E41"/><path d="M88.129 88.829a3.395 3.395 0 00-.714-2.795 3.422 3.422 0 00-2.612-1.25L77.75 64.39l-3.903 4.953 7.457 19.055c.046.838.399 1.63.992 2.225a3.451 3.451 0 005.833-1.794z" fill="#FFB8B8"/><path d="M57.127 39.591s-.22-7.382 6.413-3.153c6.633 4.229 21.074 43.844 21.074 43.844l-7.186 3.87L61.113 47.9l-3.986-8.309z" fill="#1CC364"/><path d="M76.695 166.116l-3.312 1.409-7.035-12.044 4.888-2.08 5.46 12.715z" fill="#FFB6B6"/><path d="M80.895 171.084l-2.375 1.01-1.382-2.051-.128 2.693-6.3 2.68a1.547 1.547 0 01-1.776-.415 1.53 1.53 0 01-.13-1.812l3.545-5.598-.969-2.256 5.427-1.936 4.088 7.685z" fill="#2F2E41"/><path d="M24.775 170.202l-3.597-.175-1.034-13.894 5.31.258-.679 13.811z" fill="#FFB6B6"/><path d="M26.37 176.497l-2.58-.125-.342-2.447-1.298 2.367-6.843-.333a1.54 1.54 0 01-1.416-1.146 1.525 1.525 0 01.68-1.687l5.648-3.49.12-2.451 5.73.621.3 8.691zm7.493-96.608s-7.316 19.842-7.434 22.063c-.118 2.22-2.204 30.3-3.954 31.932-1.75 1.631-7.1 26.926-2.937 28.904 4.162 1.979 17.295-1.299 17.295-1.299L41.4 131.61l1.552-22.891s4.725 53.905 13.294 53.746c8.57-.159 19.011-3.406 19.011-3.406l-11.994-32.645s.17-38.647-2.61-46.442c-2.78-7.795-26.791-.083-26.791-.083z" fill="#2F2E41"/><path d="M55.57 28.767l-9.797.893-1.578 4.822s-8.199 4.481-6.383 6.517c1.815 2.036-.406 15.757-.406 15.757l.501 11.137s-.539 7.716-2.152 9.494c-1.613 1.778-5.832 6.138-2.85 4.052 10.454-7.313 28.728-1.142 28.728-1.142l-2.61-15.914s5.929-26.055 3.589-28.255c-2.34-2.2-4.548-2.479-4.548-2.479l-2.493-4.883z" fill="#1CC364"/><path d="M4.09 79.245a3.433 3.433 0 002.357-1.678 3.396 3.396 0 00.22-2.876l16.525-13.953-6.055-1.819L2.012 72.76A3.435 3.435 0 00.29 74.49a3.412 3.412 0 00-.133 2.431 3.43 3.43 0 001.523 1.906 3.457 3.457 0 002.41.418z" fill="#FFB8B8"/><path d="M46.056 42.748s3.256-6.637-4.538-5.503C33.723 38.38 4.166 68.554 4.166 68.554l4.946 6.473 29.873-26.343 7.071-5.936z" fill="#1CC364"/><path d="M33.363 31.49L2.46 70.895a3.263 3.263 0 00.568 4.588c7.177 17.342 28.647 30.202 53.903 41.875a3.297 3.297 0 004.61-.565L92.444 77.39a3.261 3.261 0 00-.568-4.588C70.68 60.889 52.464 47.089 37.973 30.925a3.301 3.301 0 00-4.61.566z" fill="#E6E6E6"/><path d="M90.275 76.492l-9.407 11.994a35.256 35.256 0 01-23.387 13.139 35.337 35.337 0 01-25.894-7.094L5.226 74.05a1.86 1.86 0 01-.326-2.61l29.862-38.075a1.873 1.873 0 012.623-.32C50.72 50.186 68.57 63.522 89.952 73.885a1.858 1.858 0 01.323 2.608z" fill="#fff"/><path d="M32.747 53.001l-6.126 7.811a.997.997 0 01-1.773-.488.987.987 0 01.203-.731l6.126-7.811a.992.992 0 011.05-.346.997.997 0 01.724.834.987.987 0 01-.204.731zm11.49-5.794L30.784 64.361a.994.994 0 01-1.05.345.999.999 0 01-.723-.834.986.986 0 01.204-.73l13.453-17.154a.995.995 0 011.05-.347.997.997 0 01.724.835.986.986 0 01-.205.731z" fill="#CCC"/><path d="M21.292 75.82c3.622 0 6.558-2.923 6.558-6.527 0-3.605-2.936-6.527-6.558-6.527-3.621 0-6.557 2.922-6.557 6.527 0 3.604 2.936 6.526 6.557 6.526z" fill="#1CC364"/><path d="M44.952 60.764l-16.524 21.07a1.004 1.004 0 01-1.7-.521.994.994 0 01.13-.699l16.524-21.068a1.004 1.004 0 011.701.52.993.993 0 01-.131.7zm10.718-4.81L32.609 85.36a1.004 1.004 0 01-1.7-.52.993.993 0 01.13-.699l23.063-29.406a1.005 1.005 0 011.701.52.994.994 0 01-.131.7zm-.08 13.076L39.068 90.097a1.004 1.004 0 01-1.7-.521.993.993 0 01.13-.699L54.022 67.81a1.005 1.005 0 011.701.521.994.994 0 01-.131.698z" fill="#CCC"/><path d="M77.454 71.628L60.93 92.696a1.004 1.004 0 01-1.7-.52.993.993 0 01.13-.7l16.524-21.068a1.004 1.004 0 011.701.521.993.993 0 01-.131.699z" fill="#1CC364"/><path d="M66.31 64.22L43.247 93.625a1.004 1.004 0 01-1.7-.521.993.993 0 01.13-.699L64.74 63a1.004 1.004 0 011.701.52.993.993 0 01-.131.7z" fill="#CCC"/><path d="M39.145 16.318c0 1.585.39 3.146 1.137 4.546a9.701 9.701 0 003.149 3.484 9.773 9.773 0 009.086.956 9.73 9.73 0 003.81-2.752 9.641 9.641 0 001.907-8.893 9.674 9.674 0 00-2.35-4.06l-.047-.046c-.078-.081-.156-.163-.237-.24h-.002l-.001-.001-.001-.001v-.002a10.063 10.063 0 00-.308-.275 9.771 9.771 0 00-10.43-1.538 9.716 9.716 0 00-4.162 3.574 9.65 9.65 0 00-1.55 5.248z" fill="#2F2E41"/><path d="M51.275 26.68c4.506 0 8.16-3.636 8.16-8.121 0-4.486-3.654-8.122-8.16-8.122-4.507 0-8.16 3.636-8.16 8.122 0 4.485 3.653 8.121 8.16 8.121z" fill="#FFB8B8"/><path d="M42.575 20.723c-.798-3.578.355-7.586 2.869-9.974a9.243 9.243 0 019.61-1.854c.205.083.41.173.611.267l.094.044v.014l.054.039c.038.035.085.06.135.074a5.052 5.052 0 013.797 1.575c1.264 1.366 1.86 3.573 1.677 6.215l-.005.082-.071.045a27.95 27.95 0 01-2.975 1.632c-3.583 1.677-6.854 1.987-9.997.949l-.058-.02-1.319-2.2c-.27 1.518-.126 6.552-1.68 6.825l-2.708-3.561-.034-.152z" fill="#2F2E41"/><path d="M25.397 27.795c2.777-1.427-.795-6.604-.077-9.632.718-3.027 5.886-4 6.215-7.093.33-3.093 1.104-6.283 3.154-8.63C36 .94 37.931-.167 39.92.02a4.718 4.718 0 013.39 1.95 4.667 4.667 0 01.73 3.83c.566-.8 2.031-.626 2.394.282.322.807-.39 1.785-1.228 1.856-1.097 1.348-2.352 2.778-4.07 3.05a1.863 1.863 0 01-1.58-.363c-.404-.386-.435-1.158.044-1.447-2.159.854-3.425 3.177-3.745 5.467-.32 2.29.123 4.607.415 6.9.292 2.294.418 4.707-.486 6.837-1.068 2.517-3.526 4.32-6.208 4.899-2.683.578-5.54.013-7.968-1.26-2.428-1.275-4.453-3.22-6.107-5.4 2.85 2.015 6.792 2.769 9.897 1.174zm21.979-9.761c-2.853 4.892 2.52 13.134-2.895 14.846l.446-.444c3.269-4.001-3.563-12.47-.294-16.471a9.773 9.773 0 001.298-1.922" fill="#2F2E41"/><path d="M42.956 20.649s2.418-8.98 12.78-11.053c.012-.004.05-.02.101-.043.031-.02.07-.039.11-.058a7.485 7.485 0 00-.347-.182h-.002l-.001-.001-.001-.001v-.002a10.063 10.063 0 00-.308-.275l-.296.012s-10.397-1.64-12.036 11.603z" fill="#FD6584"/><path d="M-32.305 176.471a.388.388 0 00.24.358.399.399 0 00.148.029h233.411a.39.39 0 00.388-.387.386.386 0 00-.388-.386h-233.41a.399.399 0 00-.276.113.384.384 0 00-.113.273z" fill="#CCC"/></g><defs><clipPath id="clip0_1_267"><path fill="#fff" d="M0 0h93v177H0z"/></clipPath></defs></svg>