<svg width="202" height="164" fill="none" xmlns="http://www.w3.org/2000/svg"><g clip-path="url(#clip0_1_393)"><path d="M202 0H0v108.874h202V0z" fill="#3F3D56"/><path d="M38.298 15.35h-1.781v2.855h1.781V15.35zm6.057-.715h-1.782v2.856h1.782v-2.856zm3.205 0h-1.78v2.856h1.78v-2.856zm0 8.568h-1.78v2.855h1.78v-2.855zm3.563-4.284h-1.78v2.856h1.78v-2.856zm0 4.641h-1.78v2.855h1.78V23.56zm-3.563 8.924h-1.78v2.855h1.78v-2.855zm3.563 4.64h-1.78v2.856h1.78v-2.856zM47.56 54.615h-1.78v2.856h1.78v-2.856zm-3.205-17.491h-1.782v2.856h1.782v-2.856zM38.298 19.99h-1.781v2.856h1.781V19.99zm0 44.62h-1.781v2.856h1.781V64.61zm0 9.281h-1.781v2.856h1.781V73.89zm0 4.641h-1.781v2.855h1.781v-2.855zm0-53.545h-2.494v.357h2.494v-.357zm9.619 4.283h-2.494v.358h2.494v-.357zm-9.619 18.563h-2.494v.357h2.494v-.357zm0 3.927h-2.494v.357h2.494v-.357zm9.619 22.845h-2.494v.357h2.494v-.357zm-2.85 8.567h-2.494v.357h2.494v-.357zM36.517 28.2v.714h.712v1.428h-.712v.714h1.781V28.2h-1.781zm6.056-4.997v.713h.713v1.428h-.713v.714h1.782v-2.855h-1.782zm6.769 4.64v.714h.713v1.428h-.713v.714h1.782v-2.856h-1.782zm0 13.922v.713h.713v1.428h-.713v.714h1.782v-2.855h-1.782zm0 4.64v.714h.713v1.428h-.713v.714h1.782v-2.856h-1.782zm0-14.278v.713h.713v1.428h-.713v.714h1.782v-2.855h-1.782zM45.78 18.919v.714h.712v1.428h-.713v.714h1.782v-2.856h-1.782zm1.78 22.846h-1.78v2.855h1.78v-2.855zm0 8.567h-1.78v2.855h1.78v-2.855zm-1.78-4.284v.714h.712v1.428h-.713v.714h1.782v-2.856h-1.782zm-3.207-18.205v.714h.713v1.428h-.713v.714h1.782v-2.856h-1.782zm0 4.641v.714h.713v1.427h-.713v.714h1.782v-2.855h-1.782zm1.782 13.921h-1.782v2.856h1.782v-2.856zm-1.782-4.64v.713h.713v1.428h-.713v.714h1.782v-2.855h-1.782zm1.782 13.921h-1.782v2.856h1.782v-2.856zm-1.782-4.64v.714h.713v1.427h-.713v.714h1.782v-2.855h-1.782zm1.782 13.921h-1.782v2.856h1.782v-2.856zm3.205-.714h-1.78v2.856h1.78v-2.856zm-4.987-3.926v.714h.713v1.428h-.713v.713h1.782v-2.855h-1.782zm6.769 0v.714h.713v1.428h-.713v.713h1.782v-2.855h-1.782zm19.951-41.408H67.51v2.856h1.782v-2.856zm0 4.641H67.51v2.855h1.782V23.56zm0 13.564H67.51v2.856h1.782v-2.856zm-1.782-9.281v.714h.713v1.428h-.713v.714h1.782v-2.856H67.51zm0 13.922v.713h.713v1.428h-.713v.714h1.782v-2.855H67.51zm0 4.64v.714h.713v1.428h-.713v.714h1.782v-2.856H67.51zm0-14.278v.713h.713v1.428h-.713v.714h1.782v-2.855H67.51zm0 28.2v.714h.713v1.428h-.713v.713h1.782v-2.855H67.51zM44.355 74.248h-1.782v2.856h1.782v-2.856zm3.205-5.354h-1.78v2.855h1.78v-2.855zm-3.205 17.491h-1.782v2.856h1.782v-2.856zm3.205-8.567h-1.78v2.856h1.78v-2.856zm-4.987-8.21v.714h.713v1.427h-.713v.715h1.782v-2.856h-1.782zm0 21.774v.714h.713v1.428h-.713v.714h1.782v-2.856h-1.782zm21.376-76.747h-1.782v2.856h1.782v-2.856zm0 22.489h-1.782v2.856h1.782v-2.856zm.712 46.048h-2.494v.357h2.494v-.357zm-2.494-59.969v.713h.713v1.428h-.713v.714h1.782v-2.855h-1.782zm0 4.64v.714h.713v1.428h-.713v.714h1.782v-2.856h-1.782zm0 4.641v.714h.713v1.427h-.713v.714h1.782v-2.855h-1.782zm1.782 13.921h-1.782v2.856h1.782v-2.856zm-1.782-4.64v.713h.713v1.428h-.713v.714h1.782v-2.855h-1.782zm1.782 13.921h-1.782v2.856h1.782v-2.856zm-1.782-4.64v.714h.713v1.427h-.713v.714h1.782v-2.855h-1.782zm1.782 13.921h-1.782v2.856h1.782v-2.856zm-1.782-4.64v.714h.713v1.428h-.713v.713h1.782v-2.855h-1.782zm1.782 13.921h-1.782v2.856h1.782v-2.856zm0 12.137h-1.782v2.856h1.782v-2.856zm-1.782-16.777v.714h.713v1.427h-.713v.715h1.782v-2.856h-1.782zm0 21.774v.714h.713v1.428h-.713v.714h1.782v-2.856h-1.782zM72.5 14.635h-1.782v2.856h1.781v-2.856zm0 22.489h-1.782v2.856h1.781v-2.856zm.712 46.048h-2.494v.357h2.494v-.357zm-2.494-59.969v.713h.712v1.428h-.712v.714h1.781v-2.855h-1.781zm0 4.64v.714h.712v1.428h-.712v.714h1.781v-2.856h-1.781zm0 4.641v.714h.712v1.427h-.712v.714h1.781v-2.855h-1.781zM72.5 46.405h-1.782v2.856h1.781v-2.856zm-1.782-4.64v.713h.712v1.428h-.712v.714h1.781v-2.855h-1.781zM72.5 55.686h-1.782v2.856h1.781v-2.856zm-1.782-4.64v.714h.712v1.427h-.712v.714h1.781v-2.855h-1.781zM72.5 64.967h-1.782v2.856h1.781v-2.856zm-1.782-4.64v.714h.712v1.428h-.712v.713h1.781v-2.855h-1.781zM72.5 74.248h-1.782v2.856h1.781v-2.856zm0 12.137h-1.782v2.856h1.781v-2.856zm-1.782-16.777v.714h.712v1.427h-.712v.715h1.781v-2.856h-1.781zm0 21.774v.714h.712v1.428h-.712v.714h1.781v-2.856h-1.781zM45.78 86.385v.714h.712v1.428h-.713v.714h1.782v-2.856h-1.782zm0 4.641v.713h.712v1.428h-.713v.714h1.782v-2.855h-1.782zm-9.263-53.902v.714h.712v1.428h-.712v.714h1.781v-2.856h-1.781zm0 18.206v.713h.712v1.428h-.712v.714h1.781v-2.856h-1.781zm0 4.64v.714h.712v1.428h-.712v.713h1.781V59.97h-1.781zm0 9.28v.715h.712v1.427h-.712v.714h1.781v-2.855h-1.781zm0 13.208v.714h.712V84.6h-.712v.714h1.781v-2.856h-1.781zm0 3.927v.714h.712v1.428h-.712v.714h1.781v-2.856h-1.781zM56.824 15.35h-1.782v2.855h1.782V15.35zm0 4.64h-1.782v2.856h1.782V19.99zm0 4.997H54.33v.357h2.494v-.357zm0 22.846H54.33v.357h2.494v-.357zm0 3.927H54.33v.357h2.494v-.357zM55.042 28.2v.714h.713v1.428h-.713v.714h1.782V28.2h-1.782zm0 8.924v.714h.713v1.428h-.713v.714h1.782v-2.856h-1.782zm0 18.206v.713h.713v1.428h-.713v.714h1.782v-2.856h-1.782zm22.088-8.925h-1.78v2.856h1.78v-2.856zm0 4.641h-1.78V53.9h1.78v-2.855zm0 4.997h-2.493v.357h2.493v-.357zm0 22.846h-2.493v.357h2.493v-.357zm0 3.926h-2.493v.357h2.493v-.357zm-1.78-23.559v.714h.712v1.428h-.713v.714h1.781v-2.856h-1.78zm0 8.924v.714h.712v1.427h-.713v.715h1.781V68.18h-1.78zm0 18.205v.714h.712v1.428h-.713v.714h1.781v-2.856h-1.78zm7.48-71.035h-1.78v2.855h1.78V15.35zm6.057-.715h-1.781v2.856h1.781v-2.856zm3.207 0h-1.782v2.856h1.782v-2.856zm0 8.568h-1.782v2.855h1.782v-2.855zm3.562-4.284h-1.781v2.856h1.781v-2.856zm0 4.641h-1.781v2.855h1.781V23.56zm-3.562 8.924h-1.782v2.855h1.782v-2.855zm3.562 4.64h-1.781v2.856h1.781v-2.856zm-3.562 17.491h-1.782v2.856h1.782v-2.856zm-3.207-17.491h-1.781v2.856h1.781v-2.856zM82.83 19.99h-1.78v2.856h1.78V19.99zm0 44.62h-1.78v2.856h1.78V64.61zm0 9.281h-1.78v2.856h1.78V73.89zm0 4.641h-1.78v2.855h1.78v-2.855zm0-53.545h-2.493v.357h2.494v-.357zm9.62 4.283h-2.494v.358h2.494v-.357zm-9.62 18.563h-2.493v.357h2.494v-.357zm0 3.927h-2.493v.357h2.494v-.357zm9.62 22.845h-2.494v.357h2.494v-.357zm-2.85 8.567h-2.494v.357H89.6v-.357zM81.05 28.2v.714h.712v1.428h-.713v.714h1.782V28.2h-1.782zm6.056-4.997v.713h.712v1.428h-.712v.714h1.781v-2.855h-1.781zm6.769 4.64v.714h.712v1.428h-.712v.713h1.781v-2.855h-1.781zm0 13.922v.713h.712v1.428h-.712v.714h1.781v-2.855h-1.781zm0 4.64v.714h.712v1.428h-.712v.714h1.781v-2.856h-1.781zm0-14.278v.713h.712v1.428h-.712v.714h1.781v-2.855h-1.781zm-3.563-13.208v.714h.713v1.428h-.713v.714h1.782v-2.856h-1.782zm1.782 22.846h-1.782v2.855h1.782v-2.855zm0 8.567h-1.782v2.855h1.782v-2.855zm-1.782-4.284v.714h.713v1.428h-.713v.714h1.782v-2.856h-1.782zm-3.206-18.205v.714h.712v1.428h-.712v.714h1.781v-2.856h-1.781zm0 4.641v.714h.712v1.427h-.712v.714h1.781v-2.855h-1.781zm1.781 13.921h-1.781v2.856h1.781v-2.856zm-1.781-4.64v.713h.712v1.428h-.712v.714h1.781v-2.855h-1.781zm1.781 13.921h-1.781v2.856h1.781v-2.856zm-1.781-4.64v.714h.712v1.427h-.712v.714h1.781v-2.855h-1.781zm1.781 13.921h-1.781v2.856h1.781v-2.856zm3.207-.714h-1.782v2.856h1.782v-2.856zm-4.988-3.926v.714h.712v1.428h-.712v.713h1.781v-2.855h-1.781zm6.769 0v.714h.712v1.428h-.712v.713h1.781v-2.855h-1.781zm19.95-41.408h-1.781v2.856h1.781v-2.856zm0 4.641h-1.781v2.855h1.781V23.56zm0 13.564h-1.781v2.856h1.781v-2.856zm-1.781-9.281v.714h.713v1.428h-.713v.714h1.781v-2.856h-1.781zm0 13.922v.713h.713v1.428h-.713v.714h1.781v-2.855h-1.781zm0 4.64v.714h.713v1.428h-.713v.714h1.781v-2.856h-1.781zm0-14.278v.713h.713v1.428h-.713v.714h1.781v-2.855h-1.781zm0 28.2v.714h.713v1.428h-.713v.713h1.781v-2.855h-1.781zM88.887 74.248h-1.781v2.856h1.781v-2.856zm3.207-5.354h-1.782v2.855h1.782v-2.855zm-3.207 17.491h-1.781v2.856h1.781v-2.856zm3.207-8.567h-1.782v2.856h1.782v-2.856zm-4.988-8.21v.714h.712v1.427h-.712v.715h1.781v-2.856h-1.781zm0 21.774v.714h.712v1.428h-.712v.714h1.781v-2.856h-1.781zm21.375-76.747H106.7v2.856h1.781v-2.856zm0 22.489H106.7v2.856h1.781v-2.856zm.713 46.048H106.7v.357h2.494v-.357zM106.7 23.203v.713h.713v1.428h-.713v.714h1.781v-2.855H106.7zm0 4.64v.714h.713v1.428h-.713v.714h1.781v-2.856H106.7zm0 4.641v.714h.713v1.427h-.713v.714h1.781v-2.855H106.7zm1.781 13.921H106.7v2.856h1.781v-2.856zm-1.781-4.64v.713h.713v1.428h-.713v.714h1.781v-2.855H106.7zm1.781 13.921H106.7v2.856h1.781v-2.856zm-1.781-4.64v.714h.713v1.427h-.713v.714h1.781v-2.855H106.7zm1.781 13.921H106.7v2.856h1.781v-2.856zm-1.781-4.64v.714h.713v1.428h-.713v.713h1.781v-2.855H106.7zm1.781 13.921H106.7v2.856h1.781v-2.856zm0 12.137H106.7v2.856h1.781v-2.856zM106.7 69.608v.714h.713v1.427h-.713v.715h1.781v-2.856H106.7zm0 21.774v.714h.713v1.428h-.713v.714h1.781v-2.856H106.7zm10.332-76.747h-1.782v2.856h1.782v-2.856zm0 22.489h-1.782v2.856h1.782v-2.856zm.712 46.048h-2.494v.357h2.494v-.357zm-2.494-59.969v.713h.713v1.428h-.713v.714h1.782v-2.855h-1.782zm0 4.64v.714h.713v1.428h-.713v.714h1.782v-2.856h-1.782zm0 4.641v.714h.713v1.427h-.713v.714h1.782v-2.855h-1.782zm1.782 13.921h-1.782v2.856h1.782v-2.856zm-1.782-4.64v.713h.713v1.428h-.713v.714h1.782v-2.855h-1.782zm1.782 13.921h-1.782v2.856h1.782v-2.856zm-1.782-4.64v.714h.713v1.427h-.713v.714h1.782v-2.855h-1.782zm1.782 13.921h-1.782v2.856h1.782v-2.856zm-1.782-4.64v.714h.713v1.428h-.713v.713h1.782v-2.855h-1.782zm1.782 13.921h-1.782v2.856h1.782v-2.856zm0 12.137h-1.782v2.856h1.782v-2.856zm-1.782-16.777v.714h.713v1.427h-.713v.715h1.782v-2.856h-1.782zm0 21.774v.714h.713v1.428h-.713v.714h1.782v-2.856h-1.782zm-24.938-4.997v.714h.713v1.428h-.713v.714h1.782v-2.856h-1.782zm0 4.641v.713h.713v1.428h-.713v.714h1.782v-2.855h-1.782zM81.05 37.124v.714h.712v1.428h-.713v.714h1.782v-2.856h-1.782zm0 18.206v.713h.712v1.428h-.713v.714h1.782v-2.856h-1.782zm0 4.64v.714h.712v1.428h-.713v.713h1.782V59.97h-1.782zm0 9.28v.715h.712v1.427h-.713v.714h1.782v-2.855h-1.782zm0 13.208v.714h.712V84.6h-.713v.714h1.782v-2.856h-1.782zm0 3.927v.714h.712v1.428h-.713v.714h1.782v-2.856h-1.782zm20.306-71.035h-1.781v2.855h1.781V15.35zm0 4.64h-1.781v2.856h1.781V19.99zm0 4.997h-2.494v.357h2.494v-.357zm0 22.846h-2.494v.357h2.494v-.357zm0 3.927h-2.494v.357h2.494v-.357zM99.575 28.2v.714h.713v1.428h-.713v.714h1.781V28.2h-1.781zm0 8.924v.714h.713v1.428h-.713v.714h1.781v-2.856h-1.781zm0 18.206v.713h.713v1.428h-.713v.714h1.781v-2.856h-1.781zm22.088-8.925h-1.781v2.856h1.781v-2.856zm0 4.641h-1.781V53.9h1.781v-2.855zm0 4.997h-2.494v.357h2.494v-.357zm0 22.846h-2.494v.357h2.494v-.357zm0 3.926h-2.494v.357h2.494v-.357zm-1.781-23.559v.714h.712v1.428h-.712v.714h1.781v-2.856h-1.781zm0 8.924v.714h.712v1.427h-.712v.715h1.781V68.18h-1.781zm0 18.205v.714h.712v1.428h-.712v.714h1.781v-2.856h-1.781zm7.481-71.035h-1.781v2.855h1.781V15.35zm6.057-.715h-1.782v2.856h1.782v-2.856zm3.206 0h-1.781v2.856h1.781v-2.856zm0 8.568h-1.781v2.855h1.781v-2.855zm3.563-4.284h-1.782v2.856h1.782v-2.856zm0 4.641h-1.782v2.855h1.782V23.56zm-3.563 8.924h-1.781v2.855h1.781v-2.855zm3.563 4.64h-1.782v2.856h1.782v-2.856zm-3.563 17.491h-1.781v2.856h1.781v-2.856zm-3.206-17.491h-1.782v2.856h1.782v-2.856zm-6.057-17.134h-1.781v2.856h1.781V19.99zm0 44.62h-1.781v2.856h1.781V64.61zm0 9.281h-1.781v2.856h1.781V73.89zm0 4.641h-1.781v2.855h1.781v-2.855zm0-53.545h-2.493v.357h2.493v-.357zm9.619 4.283h-2.493v.358h2.493v-.357zm-9.619 18.563h-2.493v.357h2.493v-.357zm0 3.927h-2.493v.357h2.493v-.357zm9.619 22.845h-2.493v.357h2.493v-.357zm-2.85 8.567h-2.494v.357h2.494v-.357zm-8.55-54.972v.714h.713v1.428h-.713v.714h1.781V28.2h-1.781zm6.056-4.997v.713h.713v1.428h-.713v.714h1.782v-2.855h-1.782zm6.769 4.64v.714h.713v1.428h-.713v.714h1.782v-2.856h-1.782zm0 13.922v.713h.713v1.428h-.713v.714h1.782v-2.855h-1.782zm0 4.64v.714h.713v1.428h-.713v.714h1.782v-2.856h-1.782zm0-14.278v.713h.713v1.428h-.713v.714h1.782v-2.855h-1.782zm-3.562-13.208v.714h.712v1.428h-.712v.714h1.781v-2.856h-1.781zm1.781 22.846h-1.781v2.855h1.781v-2.855zm0 8.567h-1.781v2.855h1.781v-2.855zm-1.781-4.284v.714h.712v1.428h-.712v.714h1.781v-2.856h-1.781zm-3.207-18.205v.714h.713v1.428h-.713v.714h1.782v-2.856h-1.782zm0 4.641v.714h.713v1.427h-.713v.714h1.782v-2.855h-1.782zm1.782 13.921h-1.782v2.856h1.782v-2.856zm-1.782-4.64v.713h.713v1.428h-.713v.714h1.782v-2.855h-1.782zm1.782 13.921h-1.782v2.856h1.782v-2.856zm-1.782-4.64v.714h.713v1.427h-.713v.714h1.782v-2.855h-1.782zm1.782 13.921h-1.782v2.856h1.782v-2.856zm3.206-.714h-1.781v2.856h1.781v-2.856zm-4.988-3.926v.714h.713v1.428h-.713v.713h1.782v-2.855h-1.782zm6.769 0v.714h.713v1.428h-.713v.713h1.782v-2.855h-1.782zm19.951-41.408h-1.781v2.856h1.781v-2.856zm0 4.641h-1.781v2.855h1.781V23.56zm0 13.564h-1.781v2.856h1.781v-2.856zm-1.781-9.281v.714h.712v1.428h-.712v.714h1.781v-2.856h-1.781zm0 13.922v.713h.712v1.428h-.712v.714h1.781v-2.855h-1.781zm0 4.64v.714h.712v1.428h-.712v.714h1.781v-2.856h-1.781zm0-14.278v.713h.712v1.428h-.712v.714h1.781v-2.855h-1.781zm0 28.2v.714h.712v1.428h-.712v.713h1.781v-2.855h-1.781zM133.42 74.248h-1.782v2.856h1.782v-2.856zm3.206-5.354h-1.781v2.855h1.781v-2.855zm-3.206 17.491h-1.782v2.856h1.782v-2.856zm3.206-8.567h-1.781v2.856h1.781v-2.856zm-4.988-8.21v.714h.713v1.427h-.713v.715h1.782v-2.856h-1.782zm0 21.774v.714h.713v1.428h-.713v.714h1.782v-2.856h-1.782zm21.376-76.747h-1.781v2.856h1.781v-2.856zm0 22.489h-1.781v2.856h1.781v-2.856zm.713 46.048h-2.494v.357h2.494v-.357zm-2.494-59.969v.713h.712v1.428h-.712v.714h1.781v-2.855h-1.781zm0 4.64v.714h.712v1.428h-.712v.713h1.781v-2.855h-1.781zm0 4.641v.714h.712v1.427h-.712v.714h1.781v-2.855h-1.781zm1.781 13.921h-1.781v2.856h1.781v-2.856zm-1.781-4.64v.713h.712v1.428h-.712v.714h1.781v-2.855h-1.781zm1.781 13.921h-1.781v2.856h1.781v-2.856zm-1.781-4.64v.714h.712v1.427h-.712v.714h1.781v-2.855h-1.781zm1.781 13.921h-1.781v2.856h1.781v-2.856zm-1.781-4.64v.714h.712v1.428h-.712v.713h1.781v-2.855h-1.781zm1.781 13.921h-1.781v2.856h1.781v-2.856zm0 12.137h-1.781v2.856h1.781v-2.856zm-1.781-16.777v.714h.712v1.427h-.712v.715h1.781v-2.856h-1.781zm0 21.774v.714h.712v1.428h-.712v.714h1.781v-2.856h-1.781zm10.331-76.747h-1.781v2.856h1.781v-2.856zm0 22.489h-1.781v2.856h1.781v-2.856zm.713 46.048h-2.494v.357h2.494v-.357zm-2.494-59.969v.713h.713v1.428h-.713v.714h1.781v-2.855h-1.781zm0 4.64v.714h.713v1.428h-.713v.714h1.781v-2.856h-1.781zm0 4.641v.714h.713v1.427h-.713v.714h1.781v-2.855h-1.781zm1.781 13.921h-1.781v2.856h1.781v-2.856zm-1.781-4.64v.713h.713v1.428h-.713v.714h1.781v-2.855h-1.781zm1.781 13.921h-1.781v2.856h1.781v-2.856zm-1.781-4.64v.714h.713v1.427h-.713v.714h1.781v-2.855h-1.781zm1.781 13.921h-1.781v2.856h1.781v-2.856zm-1.781-4.64v.714h.713v1.428h-.713v.713h1.781v-2.855h-1.781zm1.781 13.921h-1.781v2.856h1.781v-2.856zm0 12.137h-1.781v2.856h1.781v-2.856zm-1.781-16.777v.714h.713v1.427h-.713v.715h1.781v-2.856h-1.781zm0 21.774v.714h.713v1.428h-.713v.714h1.781v-2.856h-1.781zm-24.938-4.997v.714h.712v1.428h-.712v.714h1.781v-2.856h-1.781zm0 4.641v.713h.712v1.428h-.712v.714h1.781v-2.855h-1.781zm-9.263-53.902v.714h.713v1.428h-.713v.714h1.781v-2.856h-1.781zm0 18.206v.713h.713v1.428h-.713v.714h1.781v-2.856h-1.781zm0 4.64v.714h.713v1.428h-.713v.713h1.781V59.97h-1.781zm0 9.28v.715h.713v1.427h-.713v.714h1.781v-2.855h-1.781zm0 13.208v.714h.713V84.6h-.713v.714h1.781v-2.856h-1.781zm0 3.927v.714h.713v1.428h-.713v.714h1.781v-2.856h-1.781zm20.307-71.035h-1.781v2.855h1.781V15.35zm0 4.64h-1.781v2.856h1.781V19.99zm0 4.997h-2.494v.357h2.494v-.357zm0 22.846h-2.494v.357h2.494v-.357zm0 3.927h-2.494v.357h2.494v-.357zm-1.782-23.56v.714h.713v1.428h-.713v.714h1.782V28.2h-1.782zm0 8.924v.714h.713v1.428h-.713v.714h1.782v-2.856h-1.782zm0 18.206v.713h.713v1.428h-.713v.714h1.782v-2.856h-1.782zm22.089-8.925h-1.782v2.856h1.782v-2.856zm0 4.641h-1.782V53.9h1.782v-2.855zm0 4.997h-2.494v.357h2.494v-.357zm0 22.846h-2.494v.357h2.494v-.357zm0 3.926h-2.494v.357h2.494v-.357zm-1.782-23.559v.714h.713v1.428h-.713v.714h1.782v-2.856h-1.782zm0 8.924v.714h.713v1.427h-.713v.715h1.782V68.18h-1.782zm0 18.205v.714h.713v1.428h-.713v.714h1.782v-2.856h-1.782z" fill="#1CC364"/><path d="M240.562 163.43H49.504v.59h191.058v-.59zM88.995 93.528v12.029l1.616 7.402s-.23 4.626 0 6.014c.231 1.388-.23 3.701-1.616 3.701-1.385 0-2.077 3.469-2.077 3.469s-.462 1.388-1.616 1.62c-1.155.231-1.155 0-1.155 0l-.923 2.313-19.161 12.722 3.694 9.252s5.771-2.082 6.233-2.775c.461-.694 4.386.925 4.386-.694 0-1.62.693-5.783 2.078-6.014 1.385-.232 12.928-5.552 12.928-5.552s6.002-6.708 6.464-9.252c.461-2.545 2.539-9.716 2.539-9.716l5.772 9.716v19.43l-.924 10.409 10.158-1.388s-.924-6.477 0-7.402c.923-.925 2.308-12.028 1.385-13.416-.923-1.388.462-7.633 0-8.559-.462-.925-.231-7.633-1.385-9.483-1.154-1.851-8.08-20.819-8.08-20.819l-20.316-3.007z" fill="#2F2E41"/><path d="M108.618 157.139s-3.463 5.783-1.154 6.477 6.695 0 7.157 0c.461 0 8.772.231 8.772.231s5.541-1.156 5.541-2.776c0-1.619-3.463-1.619-4.617-1.85-1.155-.231-8.311-3.007-8.311-3.007l-7.388.925zm-43.495-14.08s-6.672-.886-6.39 1.513c.282 2.398 2.66 6.155 2.844 6.58.125.287 1.583 3.927 2.511 6.247.67 1.7 1.679 3.246 2.963 4.545.908.909 1.897 1.638 2.546 1.356 1.483-.643.106-3.827-.14-4.98-.248-1.154-.55-8.837-.55-8.837l-3.784-6.424z" fill="#2F2E41"/><path d="M111.504 55.246l7.387-17.117s-.692-1.619-2.308-1.388c0 0-2.193-5.667-6.349-5.667 0 0-6.233-3.47-8.08 0 0 0-3.924 3.47-3.693 6.708.23 3.239.461 5.552.461 5.552s-3.693.462-3 2.313c.692 1.85.923 1.85 0 2.544l-.924.694s-19.161 17.349-8.542 42.793l.923 3.932v3.701s23.317.232 23.317 0c0-.231-.462-1.619.462-2.544.923-.925.923-2.313.923-2.313s-.923-4.626-.462-6.014c.462-1.388.693-7.402-.23-8.79-.924-1.388-.462-12.491-.462-12.491l2.078-3.932-.693-2.313-.693-2.314-.115-3.354z" fill="#8985A8"/><path opacity=".1" d="M109.542 101.624s-2.771-7.633-2.54-9.02c.231-1.389-.461-4.164-.461-4.164l-.924-18.737s3.925-16.654-4.848-19.43c0 0-2.22.97-4.038 4.094-1.799.802-3.981 2.834-4.504 7.934-.923 9.022 3.232 32.153 5.31 36.085 2.078 3.932 3.463 6.708 3.463 6.708l2.172-.967.137.273 6.233-2.776z" fill="#000"/><path d="M110.811 53.164a.693.693 0 100-1.386.693.693 0 000 1.386z" fill="#F2F2F2"/><path d="M111.042 52.47h-.461v10.872h.461V52.471z" fill="#3F3D56"/><path d="M102.501 102.434l1.846 3.932s4.156-1.388 4.156-2.082-1.847-3.701-1.847-3.701l-4.155 1.851z" fill="#FFB8B8"/><path d="M99.846 50.273s-5.31 2.313-6.233 11.334c-.924 9.022 3.232 32.153 5.31 36.085a358.397 358.397 0 013.462 6.708l6.233-2.776s-2.77-7.633-2.539-9.02c.231-1.389-.462-4.164-.462-4.164l-.923-18.737s3.924-16.654-4.848-19.43z" fill="#8985A8"/></g><defs><clipPath id="clip0_1_393"><path fill="#fff" d="M0 0h202v164H0z"/></clipPath></defs></svg>