<svg width="222" height="167" fill="none" xmlns="http://www.w3.org/2000/svg"><g clip-path="url(#clip0_1_297)"><path d="M129.788 143.413H83.863v23.084h45.925v-23.084z" fill="#fff"/><path d="M124.362 149.322H89.289v1.186h35.073v-1.186zm0 5.04H89.289v1.186h35.073v-1.186zm0 5.04H89.289v1.186h35.073v-1.186z" fill="#1CC364"/><path d="M130.15 166.858H83.501v-23.806h46.649v23.806zm-45.926-.721h45.202v-22.363H84.224v22.363z" fill="#3F3D56"/><path d="M96.786 114.741a52.334 52.334 0 01-27.523-7.793l-.21-.13.13-.209 27.465-44.337h52.495v.246c0 28.796-23.488 52.223-52.357 52.223z" fill="#1CC364"/><path d="M63.106 95.916l-.169-.104a41.942 41.942 0 01-18.633-25.328 41.84 41.84 0 014.233-31.13l.099-.171 36.668 20.9-22.198 35.833z" fill="#F1F1F1"/><path d="M149.143 55.276H96.478l11.353-51.301.241.052a52.39 52.39 0 0129.53 18.296 52.16 52.16 0 0111.541 32.707v.246z" fill="#1CC364"/><path d="M88.09 47.197L52.406 26.858l.096-.167a40.842 40.842 0 0118.913-17.02A40.974 40.974 0 0196.76 7.126l.188.042-8.858 40.029z" fill="#F1F1F1"/><path d="M221.64.36h-45.925v23.085h45.925V.361z" fill="#fff"/><path d="M216.214 6.27h-35.073v1.186h35.073V6.27zm0 5.04h-35.073v1.186h35.073V11.31zm0 5.04h-35.073v1.186h35.073V16.35z" fill="#1CC364"/><path d="M222.001 23.806h-46.648V0h46.648v23.806zm-45.925-.722h45.202V.721h-45.202v22.363zM107.285 83.67h-.723v59.382h.723V83.669z" fill="#3F3D56"/><path d="M175.536 11.93l-54.293 24.494.298.657 54.293-24.494-.298-.657z" fill="#3F3D56"/></g><defs><clipPath id="clip0_1_297"><path fill="#fff" d="M0 0h222v167H0z"/></clipPath></defs></svg>