<svg width="160" height="232" fill="none" xmlns="http://www.w3.org/2000/svg"><g clip-path="url(#clip0_1_336)"><path d="M161.752 42.282c-1.48 16.38-5.697 33.653-12.311 50.32-8.178 20.609-19.352 38.761-32.314 52.495l-.719-.63c12.899-13.667 24.022-31.74 32.166-52.264 7.361-18.548 11.739-37.85 12.667-55.81l.919.155a145.374 145.374 0 01-.408 5.734zm5.896 95.137c-18.206 29.091-40.293 49.876-62.194 58.527l-.443-.816c21.749-8.591 43.707-29.27 61.83-58.228l.807.517z" fill="#F2F2F2"/><path d="M161.31 62.677c-1.48 16.38-5.697 33.653-12.31 50.319-8.179 20.609-19.353 38.762-32.315 52.496l-.719-.63c12.899-13.668 24.022-31.74 32.167-52.265 7.36-18.547 11.738-37.848 12.666-55.808l.919.154a145.387 145.387 0 01-.408 5.734z" fill="#F2F2F2"/><path d="M219.219 231.674a.44.44 0 01-.131.318.435.435 0 01-.316.131H-65.281a.446.446 0 01-.447-.449.449.449 0 01.447-.449h284.053a.453.453 0 01.316.131.444.444 0 01.131.318z" fill="#CCC"/><path d="M9.203 204.189l-.745-10.408a33.394 33.394 0 00-15.736-3.544c7.673 5.958 7.059 17.865 12.373 26.014a20.196 20.196 0 006.502 6.195 20.113 20.113 0 008.532 2.754l6.387 3.69a34.08 34.08 0 00-.953-14.513 33.985 33.985 0 00-6.914-12.779 32.69 32.69 0 00-6.147-5.43c-1.396 4.026-3.299 8.021-3.299 8.021zm135.085 1.509l.745-10.408a33.392 33.392 0 0115.736-3.544c-7.673 5.957-7.059 17.865-12.373 26.014a20.193 20.193 0 01-6.502 6.195 20.108 20.108 0 01-8.532 2.754l-6.387 3.69c-.73-4.85-.405-9.801.953-14.513a33.986 33.986 0 016.914-12.779 32.684 32.684 0 016.147-5.43c1.396 4.025 3.299 8.021 3.299 8.021z" fill="#F2F2F2"/><path d="M73.365 88.251c3.941 0 7.136-3.209 7.136-7.167 0-3.959-3.195-7.168-7.136-7.168-3.94 0-7.136 3.21-7.136 7.168 0 3.959 3.195 7.167 7.136 7.167z" fill="#1CC364"/><path d="M77.028 78.097a.576.576 0 00-.796 0 23.693 23.693 0 00-4.05 4.154l-.865-1.682c-.333-.647-1.306-.075-.973.571l1.266 2.46a.57.57 0 00.973 0 22.874 22.874 0 014.445-4.703.57.57 0 000-.8z" fill="#fff"/><path d="M41.435 101.408L30.673 84.434l12.462-6.703 3.27 12.95L69.45 103.19a4.96 4.96 0 015.3 1.261 5.022 5.022 0 01.985 5.379 4.996 4.996 0 01-1.798 2.209 4.966 4.966 0 01-5.445.101 5 5 0 01-1.877-2.142l-25.18-8.589z" fill="#A0616A"/><path d="M22.811 64.076c-3.38 4.986 8.635 23.11 8.635 23.11.585-1.267 6.181 12.964 7.118 12.124 2.664-2.39 6.834-9.045 9.152-9.342 1.325-.17-3.075-9.611-3.075-9.611s-2.01-5.576-4.739-12.698a12.792 12.792 0 00-3.584-5.256 12.713 12.713 0 00-5.665-2.867s-4.46-.446-7.842 4.54z" fill="#3F3D56"/><path d="M22.977 226.527l5.11-.001 2.431-19.799h-7.543l.002 19.8z" fill="#A0616A"/><path d="M21.673 224.851h1.438l5.616-2.294 3.01 2.293a6.4 6.4 0 014.536 1.887 6.457 6.457 0 011.879 4.555v.21H21.673v-6.651z" fill="#2F2E41"/><path d="M46.72 226.527l5.11-.001 2.432-19.799h-7.543v19.8z" fill="#A0616A"/><path d="M45.416 224.851h1.438l5.617-2.294 3.01 2.293a6.4 6.4 0 014.535 1.887 6.457 6.457 0 011.88 4.555v.21h-16.48v-6.651zm3.516-106.568l-33.242.835c-6.314 3.444-6.41 10.898-4.34 19.749 0 0-.7 5.26.697 6.663 1.397 1.403 2.095 1.403 1.397 3.858-.698 2.455 2.991 6.464 2.543 6.914-.448.451-1.495 2.905-1.495 2.905l3.491 19.99s2.444 34.719 3.143 35.421c.698.701 1.396 0 .698 1.753-.698 1.754-1.397 1.053-.698 1.754.618.67 1.201 1.372 1.746 2.104h8.442s.636-3.507.636-3.858c0-.35.698-2.454.698-2.805s-.617-.971-.617-.971a11.597 11.597 0 01-.43-2.185c0-.702-2.095-27.706-2.095-27.706l4.19-35.07 10.126 34.369s0 30.16.698 30.861c.698.702.698.351.35 1.754-.35 1.403-1.747 1.052-.7 2.104 1.048 1.052 1.397-.701 1.048 1.052l-.349 1.754 10.475.15s1.397-2.956.698-4.008c-.698-1.052-.656-.765.196-2.487.852-1.721 1.201-2.072.852-2.423-.35-.35-.35-2.216-.35-2.216l-1.745-33.555s-.35-35.421-.35-36.473a3.516 3.516 0 01.29-1.578v-1.428l-1.337-5.06-4.666-12.167z" fill="#2F2E41"/><path d="M28.963 48.858c5.704 0 10.328-4.645 10.328-10.374 0-5.73-4.624-10.374-10.328-10.374s-10.329 4.645-10.329 10.374c0 5.73 4.625 10.374 10.329 10.374z" fill="#A0616A"/><path d="M34.127 55.714c2.225 1.329 3.556 3.77 4.32 6.254a59.505 59.505 0 012.536 14.16l.807 14.389 9.996 30.636c-8.663 7.363-41.225 1.674-41.225 1.674s-1-.335 0-1.339 1.973-.114.973-1.118c-.999-1.004-.31.114.023-.89s0-.334-.333-.669 2.58-3.346 2.58-3.346l-2.666-17.586-3.332-35.472c3.998-5.02 12.039-7.979 12.039-7.979l2.078-3.756 10.388.835 1.816 4.207z" fill="#3F3D56"/><path d="M37.477 32.972a4.808 4.808 0 011.7 2.4c.117-1.567.124-3.14.023-4.708-.122-1.102-.894-1.35-1.789-1.637-.807-.259-1.72-.552-1.966-1.622-3.247-3.172-8.898-3.012-12.767-1.905-2.128.609-3.352 1.391-3.462 1.85l-.023.094-.086.043c-1.64.824-1.96 3.426-1.94 5.463.04 3.839 1.36 8.199 2.104 8.553.04.019.05.011.066-.003 1.12-.899 2.485.068 3.085.594a10.805 10.805 0 013.238-6.243 10.72 10.72 0 016.381-2.909c.78-.076 1.556-.206 2.318-.39.387-.1.785-.153 1.185-.156a3.36 3.36 0 011.933.576z" fill="#2F2E41"/><path d="M101.595 126.549l19.869-20.264 5.234-16.208-8.423-3.422c-4.173 4.228-8.469 17.17-8.469 17.17l-13.56 18.28a4.017 4.017 0 00-1.884 1.449 4.037 4.037 0 00-.407 3.937 4.009 4.009 0 003.143 2.389 4.002 4.002 0 003.662-1.464 4.04 4.04 0 00.835-1.867z" fill="#FFB8B8"/><path d="M115.977 88.51l10.652 3.094.04-.007c3.916-.764 7.013-7.3 8.922-12.648a7.422 7.422 0 00-.174-5.422 7.376 7.376 0 00-3.813-3.843 7.345 7.345 0 00-7.697 1.18l-5.312 4.593-2.618 13.052z" fill="#1CC364"/><path d="M106.862 225.925l-5.729-.001-2.725-22.194h8.455l-.001 22.195z" fill="#FFB8B8"/><path d="M108.324 224.046h-1.613l-6.296-2.572-3.374 2.571a7.176 7.176 0 00-5.084 2.116 7.238 7.238 0 00-2.106 5.106v.235h18.472l.001-7.456z" fill="#2F2E41"/><path d="M132.283 225.925l-5.729-.001-2.725-22.194h8.455l-.001 22.195z" fill="#FFB8B8"/><path d="M133.745 224.046h-1.613l-6.296-2.572-3.374 2.571a7.175 7.175 0 00-5.084 2.116 7.24 7.24 0 00-2.107 5.106v.235h18.473l.001-7.456zm7.274-93.723s.669 8.063-1.003 15.79c-1.673 7.727-1.673 29.489-1.673 29.489l-3.679 42.405L123.626 217l-3.011-70.887-10.703 23.853 1.003 3.36-1.336.839s1.002 6.552.333 6.552-2.342 1.007-2.342 1.007l1.338 34.604-11.372-.336-4.014-48.714 4.348-27.884.335-5.375 1.505.062.766-2.246 1.408-3.863 39.135 2.351z" fill="#2F2E41"/><path d="M141.597 132.017l.06-.084c3.184-4.477-1.605-15.235-2.327-16.795l3.042-.991-.685-5.848-.325-2.607 2.325-2.336.007-.058 1.338-11.758 1.945-7.81a17.213 17.213 0 00-.181-8.968 17.152 17.152 0 00-4.664-7.648l-4.497-4.259-5.465-8.121h-8.812l-3.022 5.732a12.842 12.842 0 00-7.345 4.778 12.942 12.942 0 00-2.593 8.394l.685 15.035-2.681 18.719-.002 3.388-3.017 3.368.659 3.308-2.296.989-1.014 4.752c-.42.556-3.19 4.265-3.19 5.279 0 .152.113.299.353.462 1.887 1.284 12.319 3.901 16.936 2.045 4.918-1.975 24.468.988 24.665 1.018l.101.016z" fill="#1CC364"/><path d="M126.625 52.112c6.446 0 11.672-5.248 11.672-11.722 0-6.474-5.226-11.723-11.672-11.723-6.445 0-11.671 5.249-11.671 11.723 0 6.474 5.226 11.722 11.671 11.722z" fill="#FFB8B8"/><path d="M125.507 52.302a31.6 31.6 0 005.389-.519c1.76-.407 5.644-3.424 6.702-5.206.787-1.324 1.259-3.371 1.516-4.856a14.3 14.3 0 00-2.771-11.246 4.493 4.493 0 00-1.85-1.505 2.267 2.267 0 00-.201-.062 5.532 5.532 0 01-2.795-1.638 4.575 4.575 0 00-.469-.46 6.802 6.802 0 00-2.878-1.36c-1.701-.41-4.134.104-7.232 1.529-1.556.716-3.283.516-4.614.262a.431.431 0 00-.404.151 3.054 3.054 0 01-2.057.886c-.473.033-.952.704-1.53 1.578-.132.198-.285.43-.396.571l-.022-.265-.26.303a3.733 3.733 0 00-.738 3.521 3.74 3.74 0 00.964 1.586 3.704 3.704 0 001.605.921c.48.115.969.18 1.462.196.298.019.607.039.904.083.953.17 1.845.586 2.59 1.206a5.626 5.626 0 011.661 2.332 1.47 1.47 0 00.952.879 1.458 1.458 0 001.274-.223 2.422 2.422 0 012.193-.46c.326.172.584.45.73.79.176.378.461.694.817.91 1.215.59 1.369 3.338.997 5.642-.358 2.222-1.138 3.842-1.896 3.94-.583.077-.649.12-.689.225l-.035.094.068.086c.326.109.672.146 1.013.109z" fill="#2F2E41"/><path d="M115.825 89.763l-5.611-7.18c-5.714 1.58-15.853 10.658-15.853 10.658l-20.824 9.076a4.006 4.006 0 00-3.76 1.411 4.044 4.044 0 00.548 5.676 4.002 4.002 0 005.65-.558l27.277-7.643 12.573-11.44z" fill="#FFB8B8"/><path d="M114.48 91.404l8.852-9.91.491-7.023a7.431 7.431 0 00-.85-3.976 7.392 7.392 0 00-2.811-2.927 7.33 7.33 0 00-5.345-.773 7.359 7.359 0 00-4.432 3.1c-3.128 4.736-6.493 11.137-4.761 14.746l.017.036 8.839 6.727z" fill="#1CC364"/><path d="M32.894 128.656L9.887 116.822c-1.636-.842-2.178-3.075-1.208-4.977l15-29.418c.97-1.903 3.091-2.766 4.728-1.925l23.006 11.835c1.637.842 2.179 3.074 1.208 4.977l-15 29.418c-.97 1.903-3.091 2.766-4.727 1.924z" fill="#E6E6E6"/><path d="M28.963 123.216l-15.631-8.041c-1.533-.788-2.04-2.879-1.132-4.661l12.463-24.44c.908-1.782 2.894-2.59 4.427-1.802l18.879 9.711c1.532.789 2.04 2.88 1.131 4.662l-6.77 13.277c-4.047 7.937-6.54 14.806-13.367 11.294z" fill="#fff"/><path d="M36.691 109.869l-13.845-7.122a.868.868 0 01-.268-1.104.866.866 0 011.05-.427l13.844 7.121a.87.87 0 01.268 1.105.866.866 0 01-1.05.427zm-12.228-2.47l-3.16-1.625a.872.872 0 01.177-1.515.866.866 0 01.604-.017l3.16 1.625a.872.872 0 01-.178 1.515.866.866 0 01-.603.017zm4.052 5.905L19.76 108.8a.868.868 0 01-.268-1.105.868.868 0 011.05-.427l8.755 4.504a.868.868 0 01.268 1.105.864.864 0 01-1.05.427zM42.17 99.125l-13.845-7.122a.87.87 0 01-.268-1.105.867.867 0 011.05-.427l13.844 7.122a.87.87 0 01-.781 1.532zm-12.229-2.47l-3.16-1.626a.87.87 0 01.782-1.531l3.16 1.625a.87.87 0 01-.782 1.532zm4.053 5.904l-8.755-4.503a.87.87 0 01.78-1.532l8.756 4.504a.868.868 0 01.268 1.104.865.865 0 01-1.049.427z" fill="#1CC364"/><path d="M13.83 103.045L8.631 83.611 22.52 80.97l-.747 13.34 18.249 18.872a4.971 4.971 0 012.753.701 4.993 4.993 0 011.925 2.098 5.026 5.026 0 01-.666 5.429 4.967 4.967 0 01-7.598.021 5.012 5.012 0 01-1.152-2.608l-21.456-15.778z" fill="#A0616A"/><path d="M7.21 61.82c-4.713 3.74 1.338 24.65 1.338 24.65.937-1.033 2.026 14.229 3.17 13.709 3.255-1.477 9.22-6.57 11.52-6.155 1.315.238-.063-10.095-.063-10.095s-.253-5.924-.73-13.54a12.83 12.83 0 00-1.85-6.094 12.759 12.759 0 00-4.547-4.442s-4.122-1.77-8.836 1.969z" fill="#3F3D56"/><path d="M85.654 146.18L73.1 140.226a1.974 1.974 0 01-1.088-2.201c.062-.285.188-.553.367-.782a38.028 38.028 0 007.291-15.94 1.951 1.951 0 011.913-1.581c6.403.022 11.188 2.37 14.223 6.979a1.994 1.994 0 01.258 1.651 62.2 62.2 0 01-7.928 17.129c-.26.398-.654.688-1.11.817a1.948 1.948 0 01-1.372-.118z" fill="#E6E6E6"/><path d="M89.347 137.829l-9.6-4.553a.999.999 0 01-.474-1.331.994.994 0 011.325-.477l9.6 4.552a1.001 1.001 0 01-.473 1.904 1.006 1.006 0 01-.378-.095zm1.491-3.172l-9.599-4.552a1.003 1.003 0 01.09-1.846.986.986 0 01.76.037l9.6 4.552a1.003 1.003 0 01-.09 1.846.986.986 0 01-.76-.037z" fill="#fff"/><path d="M78.012 35.089l-.894.098C73.134 19.462 65.412 8.568 54.785 3.682 41.276-2.528 24.572 1.642 7.75 15.426-9.159 29.28-24.128 51.162-34.398 77.045l-.867-.399C-24.95 50.651-9.905 28.662 7.099 14.731 24.187.731 41.232-3.47 55.095 2.902 66.026 7.928 73.95 19.058 78.012 35.09z" fill="#F2F2F2"/></g><defs><clipPath id="clip0_1_336"><path fill="#fff" d="M0 0h160v232H0z"/></clipPath></defs></svg>