<svg width="138" height="166" fill="none" xmlns="http://www.w3.org/2000/svg"><g clip-path="url(#clip0_1_316)"><path d="M.987 79.396a6.745 6.745 0 004.732 3.194 6.763 6.763 0 005.492-1.572l20.812 11.918-.776-12.424-19.644-9.413A6.793 6.793 0 00.11 74.66a6.77 6.77 0 00.877 4.736z" fill="#FFB8B8"/><path d="M61.24 127.141c-6.173 8.627-5.952 23.061-4.23 38.859H86.2l1.268-2.957L89.16 166h27.497s-2.115-40.127-5.922-41.394c-3.807-1.267-49.495 2.535-49.495 2.535z" fill="#2F2E41"/><path d="M86.2 37c8.176 0 14.805-6.619 14.805-14.783 0-8.165-6.629-14.784-14.806-14.784s-14.806 6.62-14.806 14.784C71.393 30.382 78.022 37 86.2 37z" fill="#FFB8B8"/><path d="M96.9 40.836l2.896 5.54 20.027 8.915-5.265 50.866-2.215 5.267 1.197 4.574-2.886 3.376c2.897 2.618 3.265 5.357 1.689 8.191l-9.223 2.11s-51.278 4.553-46.956-3.379c4.722-8.667 5.924-34.262-4.5-47.94-8.85-11.611-2.055-26.679-2.055-26.679L70.6 45.413l7.72-4.577H96.9z" fill="#3F3D56"/><path d="M92.772.561a.816.816 0 01.786-.465C86.78-.31 79.64.48 73.97 4.209c-1.374.904-2.67 1.982-4.164 2.637a.448.448 0 00-.092.762l.164.129a.45.45 0 01-.146.784.45.45 0 00-.113.807l1.258.812a.448.448 0 01.004.753 2.25 2.25 0 01-.334.17.45.45 0 00-.143.753 4.466 4.466 0 011.218 1.777c.42 1.09.495 2.275.565 3.44.434-1.68 2.27-2.67 4.005-2.77 1.735-.1 3.427.47 5.115.882a28.34 28.34 0 0011.231.431c-1.268 2.541-.198 5.573.879 8.2l3.484-1.49c4.787-2.698 1.453 8.713-.337 10.28 3.654 1.264 13.216-12.773 10.14-18.097-1.6-2.77-.464-6.342-3.61-8.969-1.542-1.62-4.62-.9-6.193-2.247-.618-.53.325-1.948-.525-2.258-.283-.102-3.556-.537-3.603-.434z" fill="#2F2E41"/><path d="M67.693 46.844c-2.717 12.044-9.685 40.163-16.755 46.044-.448.423-.986.74-1.573.928-24.85 6.044-32.812-9.374-32.812-9.374s6.66-3.24 6.828-9.574l13.43 4.16 11.707-26.305 1.723-1.605.01-.01 17.442-4.264z" fill="#3F3D56"/><path d="M120.677 158.059a6.748 6.748 0 002.057-5.322 6.756 6.756 0 00-.828-2.802 6.76 6.76 0 00-1.938-2.189l6.966-22.923-11.953 3.54-4.782 21.226a6.771 6.771 0 001.471 8.882 6.796 6.796 0 009.007-.412z" fill="#FFB8B8"/><path d="M114.301 54.008l5.522 1.283s22.821 44.335 17.322 52.783c-5.5 8.447-12.237 36.416-12.237 36.416s-9.964-1.978-13.772-7.047l6.972-33.171-7.191-27.877 3.384-22.387z" fill="#3F3D56"/><path d="M9.55 119.845l.198-71.405a5.453 5.453 0 011.612-3.848 5.47 5.47 0 013.863-1.588l54.008.15a5.47 5.47 0 013.855 1.608 5.453 5.453 0 011.59 3.858l-.198 71.404a5.455 5.455 0 01-1.612 3.849 5.467 5.467 0 01-3.863 1.587l-54.009-.149a5.474 5.474 0 01-3.854-1.609 5.453 5.453 0 01-1.59-3.857z" fill="#E6E6E6"/><path d="M13.753 98.29l.127-45.906a5.107 5.107 0 011.51-3.604 5.123 5.123 0 013.617-1.487l46.416.128a5.123 5.123 0 013.61 1.507 5.107 5.107 0 011.49 3.613l-.177 63.54a5.107 5.107 0 01-1.51 3.604 5.126 5.126 0 01-3.618 1.487l-28.753-.08a22.816 22.816 0 01-16.079-6.712 22.749 22.749 0 01-6.633-16.09z" fill="#fff"/><path d="M60.105 67.457H23.912a2.173 2.173 0 01-2.171-2.168 2.167 2.167 0 012.171-2.168h36.193a2.173 2.173 0 012.171 2.168 2.166 2.166 0 01-2.171 2.168zm-28.23-9.998h-7.963a2.173 2.173 0 01-2.171-2.168 2.167 2.167 0 012.171-2.168h7.963a2.173 2.173 0 012.171 2.168 2.166 2.166 0 01-2.171 2.168zm28.23 19.996H23.912a2.173 2.173 0 01-2.171-2.168 2.167 2.167 0 012.171-2.168h36.193a2.173 2.173 0 012.171 2.168 2.166 2.166 0 01-2.171 2.168zm0 9.998H23.912a2.173 2.173 0 01-2.171-2.168 2.167 2.167 0 012.171-2.168h36.193a2.173 2.173 0 012.171 2.168 2.166 2.166 0 01-2.171 2.168zm-2.929 26.344c4.772 0 8.64-3.862 8.64-8.627 0-4.765-3.868-8.627-8.64-8.627s-8.64 3.862-8.64 8.627c0 4.765 3.868 8.627 8.64 8.627z" fill="#1CC364"/><path d="M55.998 109.66a.968.968 0 01-.769-.384l-2.358-3.138a.962.962 0 01.192-1.345.966.966 0 011.346.193l1.542 2.053 3.961-5.932a.956.956 0 01.612-.411.97.97 0 01.723.142.958.958 0 01.265 1.334l-4.715 7.061a.964.964 0 01-.773.427h-.026z" fill="#fff"/><path d="M38.751 26.38a4.099 4.099 0 004.102-4.095 4.099 4.099 0 00-4.102-4.095 4.099 4.099 0 00-4.102 4.095 4.099 4.099 0 004.102 4.096zm-14.96 117.809a4.099 4.099 0 004.102-4.096 4.098 4.098 0 00-4.102-4.095 4.098 4.098 0 00-4.101 4.095 4.099 4.099 0 004.101 4.096zm94.343-101.908a4.098 4.098 0 004.101-4.095 4.098 4.098 0 00-4.101-4.096 4.098 4.098 0 00-4.102 4.096 4.098 4.098 0 004.102 4.095z" fill="#F2F2F2"/></g><defs><clipPath id="clip0_1_316"><path fill="#fff" d="M0 0h138v166H0z"/></clipPath></defs></svg>