<svg width="30" height="30" fill="none" xmlns="http://www.w3.org/2000/svg"><path d="M15 0C8.89 0 3.918 4.971 3.918 11.082c0 2.012.902 4.175.94 4.267a17.88 17.88 0 001.28 2.395l7.6 11.514c.31.472.77.742 1.262.742s.952-.27 1.263-.742l7.599-11.514a17.8 17.8 0 001.28-2.395c.039-.09.94-2.255.94-4.267C26.082 4.972 21.111 0 15 0zm8.94 14.843c-.26.62-.795 1.62-1.167 2.184L15.174 28.54c-.15.228-.197.228-.347 0l-7.6-11.513a16.377 16.377 0 01-1.167-2.185c-.011-.027-.838-2.018-.838-3.76 0-5.392 4.386-9.778 9.778-9.778s9.778 4.386 9.778 9.778c0 1.745-.829 3.741-.837 3.76z" fill="#fff"/><path d="M15 5.216a5.874 5.874 0 00-5.867 5.867A5.874 5.874 0 0015 16.95a5.874 5.874 0 005.867-5.867A5.874 5.874 0 0015 5.216zm0 10.43a4.569 4.569 0 01-4.563-4.563A4.569 4.569 0 0115 6.52a4.569 4.569 0 014.563 4.563A4.569 4.569 0 0115 15.646z" fill="#fff"/></svg>