<svg width="276" height="342" fill="none" xmlns="http://www.w3.org/2000/svg"><path d="M-13.5 1.5c89.833 18.833 268.2 77.9 263 163.5C243 272 92 243 57 310.5c-28 54-67 22.5-83 0" stroke="#1CC364" stroke-width="2" stroke-dasharray="2 2"/><g clip-path="url(#clip0_9_873)"><path d="M274.109 214.052h-65.136a1.963 1.963 0 01-1.386-.578 1.977 1.977 0 01-.576-1.392v-22.064a1.978 1.978 0 01.576-1.393 1.963 1.963 0 011.386-.578h65.136a1.965 1.965 0 011.962 1.971v22.064a1.972 1.972 0 01-1.962 1.97zm0 27.974h-65.136a1.958 1.958 0 01-1.386-.578 1.977 1.977 0 01-.576-1.392v-22.064a1.98 1.98 0 01.576-1.393 1.957 1.957 0 011.386-.577h65.136c.52 0 1.019.208 1.387.577.368.37.575.87.575 1.393v22.064a1.972 1.972 0 01-1.962 1.97zm0 27.974h-65.136a1.958 1.958 0 01-1.386-.578 1.977 1.977 0 01-.576-1.392v-22.064a1.98 1.98 0 01.576-1.393 1.957 1.957 0 011.386-.577h65.136c.52 0 1.019.208 1.387.577.368.37.575.87.575 1.393v22.064a1.972 1.972 0 01-1.962 1.97z" fill="#E5E5E5"/><path d="M195.947 222.425a14.766 14.766 0 01-3.677-.477l-.237-.066-.219-.111c-7.938-3.996-14.635-9.274-19.904-15.688a59.475 59.475 0 01-10.05-17.919 69.244 69.244 0 01-3.884-24.295c.003-.174.006-.308.006-.4 0-4.019 2.222-7.545 5.66-8.983 2.631-1.101 26.521-10.954 28.247-11.666 3.251-1.635 6.719-.27 7.274-.032 1.245.512 23.329 9.582 28.102 11.864 4.918 2.351 6.231 6.576 6.231 8.702 0 9.624-1.66 18.618-4.934 26.732a61.927 61.927 0 01-11.078 17.927c-9.043 10.219-18.088 13.841-18.176 13.873a9.83 9.83 0 01-3.361.539zm-2.128-5.291c.785.177 2.59.442 3.767.01 1.495-.547 9.066-4.489 16.141-12.484 9.775-11.046 14.735-24.931 14.742-41.27-.017-.331-.251-2.692-3.365-4.181-4.68-2.238-27.636-11.663-27.867-11.758l-.063-.027c-.481-.203-2.012-.629-3.068-.074l-.211.099c-.256.106-25.615 10.564-28.32 11.696-1.892.792-2.566 2.753-2.566 4.324 0 .115-.003.282-.007.498-.216 11.18 2.36 38.69 30.817 53.167z" fill="#3F3D56"/><path d="M192.94 145.115s-25.59 10.554-28.332 11.701c-2.741 1.147-4.112 3.9-4.112 6.653 0 2.753-2.057 38.677 32.444 56.047 0 0 3.131.869 5.507 0 2.376-.87 32.535-15.554 32.535-56.162 0 0 0-4.129-4.798-6.424-4.798-2.294-27.996-11.815-27.996-11.815s-2.849-1.262-5.248 0z" fill="#1CC364"/><path opacity=".2" d="M195.682 153.374v56.299s25.818-12.479 25.59-45.286l-25.59-11.013z" fill="#000"/></g><defs><clipPath id="clip0_9_873"><path fill="#fff" transform="translate(158 142)" d="M0 0h118v128H0z"/></clipPath></defs></svg>