<svg width="125" height="160" fill="none" xmlns="http://www.w3.org/2000/svg"><path d="M57.248 0c15.803 0 30.117 6.377 40.474 16.683 10.356 10.305 16.765 24.55 16.765 40.274 0 7.37-1.415 14.423-3.984 20.897l-.056.133c-2.419 6.06-5.873 11.612-10.125 16.452l22.175 38.225a18.246 18.246 0 011.704 13.712c-1.21 4.487-4.108 8.528-8.411 11.063l-.417.236c-4.345 2.418-9.296 2.889-13.779 1.696-4.566-1.22-8.684-4.17-11.226-8.549l-22.032-37.978a57.748 57.748 0 01-11.097 1.077c-15.803 0-30.117-6.378-40.474-16.683C6.41 86.933 0 72.688 0 56.964c0-15.725 6.409-29.969 16.765-40.275C27.122 6.384 41.437.007 57.24.007L57.25 0zm0 11.197a45.963 45.963 0 0132.52 13.404c8.323 8.282 13.471 19.725 13.471 32.36 0 12.635-5.148 24.078-13.47 32.353l-.155.139c-8.313 8.194-19.75 13.265-32.367 13.265a45.937 45.937 0 01-32.514-13.404c-8.323-8.281-13.47-19.725-13.47-32.353 0-12.631 5.147-24.069 13.47-32.35a45.93 45.93 0 0132.52-13.415l-.005.001zM86.13 28.223A40.832 40.832 0 0057.248 16.32a40.84 40.84 0 00-28.882 11.903c-7.391 7.35-11.962 17.512-11.962 28.74 0 11.221 4.576 21.384 11.962 28.734A40.82 40.82 0 0057.243 97.6a40.821 40.821 0 0028.759-11.776l.118-.128c7.387-7.35 11.963-17.517 11.963-28.735 0-11.222-4.576-21.384-11.963-28.74l.01.002zm7.953-7.919A52.059 52.059 0 0057.25 5.122a52.064 52.064 0 00-36.834 15.182C10.991 29.683 5.158 42.646 5.158 56.957c0 14.31 5.832 27.274 15.257 36.652S42.863 108.79 57.25 108.79c2.038 0 4.031-.113 5.956-.334a52.962 52.962 0 005.847-.999 2.585 2.585 0 012.795 1.22l22.967 39.573c1.833 3.16 4.808 5.291 8.108 6.166 3.263.871 6.85.528 9.991-1.224l.129-.077a13.244 13.244 0 006.197-8.068c.88-3.283.52-6.894-1.286-10.039l-22.999-39.64a2.544 2.544 0 01.356-3.012 51.822 51.822 0 0010.372-16.267l.046-.123a51.501 51.501 0 003.619-19.017c0-14.312-5.832-27.275-15.258-36.653l-.006.007z" fill="#fff" opacity=".2"/></svg>