<svg width="110" height="60" fill="none" xmlns="http://www.w3.org/2000/svg"><path d="M109.112 31.15a.838.838 0 00-.739-.453H86.766V.84a.84.84 0 00-.84-.84h-16.3a.84.84 0 00-.839.84v8.032c0 .223.088.436.246.593.157.158.37.246.593.246a1.462 1.462 0 11-1.461 1.463.84.84 0 10-1.68 0A3.141 3.141 0 1070.469 8.2v-.807H81.49v23.304h-6.25V20.482a.842.842 0 00-.84-.84H23.34a.84.84 0 00-.84.84v10.215h-5.478a.84.84 0 00-.84.84v4.689h-1.68v-6.284a.844.844 0 00-.84-.84H.842a.84.84 0 00-.84.84v7.123a.723.723 0 000 .1l4.855 22.18a.84.84 0 00.824.655h83.524a.841.841 0 00.689-.37l19.17-27.605a.84.84 0 00.051-.874h-.003zM70.468 5.647V1.68h11.023v3.965H70.468zm12.702.874V1.68h1.915l.002 29.017H83.17V6.52zm-3.007 25.858v.437l-8.921 8.988H68.67l9.375-9.375 2.118-.05zm-3.982 9.425h-2.57l6.552-6.552v2.52l-3.982 4.032zm3.982-1.68v1.68h-1.68l1.68-1.68zm-21.742 1.68v-9.425h3.36v9.425h-3.36zm-5.04 0v-9.425h3.36v9.425h-3.36zm-5.042 0l.002-9.425h3.36v9.425h-3.362zm-4.871 0v-9.425h3.192v9.425h-3.192zm-25.607-6.72h23.522v1.076H17.861v-1.076zm16.584-4.385v-9.375h3.36v9.375h-3.36zm-5.04 0v-9.375h3.36v9.375h-3.36zm-5.042 0v-9.375h3.36v9.375h-3.36zm15.123-9.375h3.36v9.375h-3.36v-9.375zm29.167 11.055h2.084l-2.084 2.084v-2.084zm-.84-1.68H49.717v-1.076h23.86v1.076h-5.764zM49.717 26.85h23.86v1.076h-23.86V26.85zm23.86-1.68h-23.86v-1.075h23.86v1.074zm-25.69 5.528h-3.361v-9.375h3.36l.001 9.375zm-6.536 7.207v1.076H17.829v-1.076H41.35zm-23.522 2.756H41.35v1.142H17.829v-1.142zm45.635-8.284h3.36l-.001 9.427h-3.36v-9.427zm5.142 7.023l-.002-2.637 4.487-4.385h2.57L68.606 39.4zm4.922-16.987l-23.81.001v-1.092h23.86l-.05 1.09zM23.34 32.378h18.096v1.025H17.915v-1.076l5.426.051zm-21.657-1.68H12.79v5.444H1.684v-5.444zM88.75 58.404H6.421L1.935 37.906h14.298v4.688a.84.84 0 00.84.84h63.93a.844.844 0 00.84-.84V32.379h24.851L88.75 58.404z" fill="#fff"/><path d="M4.656 31.064a2.436 2.436 0 100 4.875 2.436 2.436 0 000-4.875zm0 3.192a.756.756 0 110-1.512.756.756 0 010 1.512z" fill="#fff"/><path d="M9.681 31.064a2.438 2.438 0 10.932 4.688 2.436 2.436 0 00-.932-4.688zm0 3.192a.755.755 0 11-.002-1.51.755.755 0 01.002 1.51zM89.59 45.564a2.637 2.637 0 100-5.273 2.637 2.637 0 000 5.273zm0-3.594a.96.96 0 01.884.59.96.96 0 01-1.252 1.252.958.958 0 01.367-1.842zm-48.525 7.039H18.887a.84.84 0 100 1.68h22.179-.001a.84.84 0 000-1.68zm0 3.798H18.887a.84.84 0 100 1.68h22.179-.001a.84.84 0 000-1.68z" fill="#fff"/></svg>