<svg width="64" height="60" fill="none" xmlns="http://www.w3.org/2000/svg"><path d="M.008 40.831l.465-3.23a.692.692 0 01.35-.515l8.681-5.204v-2.065a1.851 1.851 0 011.844-1.852h1.159c.758 0 1.232.326 1.525.816l.025.049c.049.081.081.163.114.253l2.75-1.648V25.64c0-.506.203-.963.538-1.297v-.008c.334-.335.8-.538 1.305-.538h1.159c.555 0 1.003.22 1.33.571.098.098.171.204.244.318l5.826-3.492c-.008-2.137-.017-4.365-.017-6.681.008-2.456.024-5.001.049-7.653v-.057c.139-1.419.506-2.692 1.142-3.802.636-1.125 1.55-2.088 2.758-2.888a.693.693 0 01.759 0c1.207.8 2.113 1.763 2.749 2.88.636 1.118 1.003 2.383 1.142 3.81v.082c.024 2.635.04 5.18.049 7.636 0 2.308-.008 4.536-.017 6.673l5.825 3.492c.074-.114.147-.22.245-.318a1.77 1.77 0 011.33-.571h1.159c.506 0 .97.203 1.305.538.017.017.025.033.041.05.31.334.498.774.498 1.256v1.794l2.749 1.648c.032-.105.081-.203.139-.301.293-.49.767-.816 1.525-.816h1.16c.505 0 .97.212 1.305.547l.04.04c.31.335.498.776.498 1.265v2.064l8.705 5.23a.655.655 0 01.326.489l.465 3.247a.682.682 0 01-.58.775.658.658 0 01-.252-.016l-26.79-5.711a260.24 260.24 0 01-.416 7.8c-.164 2.398-.36 4.535-.588 6.395l11.096 6.657a.706.706 0 01.326.49l.204 1.452a.678.678 0 01-.58.775.656.656 0 01-.252-.008L33.4 56.895c-.522 1.958-.979 3.018-1.664 3.1-.75.082-1.281-.921-1.877-3.1l-12.025 2.562a.684.684 0 01-.824-.784l.204-1.435a.687.687 0 01.359-.506l11.063-6.641c-.228-1.86-.424-3.998-.587-6.396a260.24 260.24 0 01-.416-7.8l-26.81 5.72a.687.687 0 01-.807-.53.656.656 0 01-.008-.253l-.001-.001zM29.965 7.178a.675.675 0 01-.954-.106.686.686 0 01.105-.963c.832-.66 1.681-.995 2.538-.995.865 0 1.713.334 2.545.995.294.237.343.67.106.963a.686.686 0 01-.963.106c-.58-.457-1.142-.694-1.69-.694-.546 0-1.109.237-1.688.694h.001zM1.778 38.114l-.277 1.95 26.644-5.679c.041-.008.081-.008.114-.016a.685.685 0 01.71.66c.114 3.133.261 5.997.44 8.575.18 2.545.392 4.797.637 6.763a.681.681 0 01-.326.67L18.526 57.75l-.024.164 11.642-2.48.04-.017c.368-.09.743.13.833.498.465 1.835.481 2.724.571 2.716.024-.008.204-.93.645-2.676a.676.676 0 01.669-.555c.081 0 .155.008.22.033l11.634 2.48-.025-.163-11.144-6.69a.673.673 0 01-.375-.694c.245-1.966.457-4.218.636-6.764.18-2.57.326-5.409.44-8.533a.504.504 0 01.009-.155.7.7 0 01.816-.53l26.644 5.678-.277-1.95-8.713-5.23a.673.673 0 01-.384-.61v-2.456a.49.49 0 00-.114-.319l-.025-.016a.461.461 0 00-.334-.139h-1.16c-.196 0-.301.057-.35.139-.09.155-.123.424-.123.702a.667.667 0 01-.098.35.681.681 0 01-.938.237l-3.892-2.333a.695.695 0 01-.383-.62v-2.179a.477.477 0 00-.122-.31l-.017-.025a.499.499 0 00-.335-.138h-1.158c-.147 0-.261.048-.326.13-.098.098-.147.253-.147.44a.709.709 0 01-.098.35.698.698 0 01-.938.238l-6.935-4.161a.68.68 0 01-.326-.596c.016-2.252.024-4.602.016-7.049 0-2.439-.016-4.976-.04-7.611-.123-1.224-.433-2.292-.972-3.23-.465-.817-1.11-1.534-1.941-2.155a6.907 6.907 0 00-1.942 2.154c-.538.939-.849 2.015-.971 3.23a823.316 823.316 0 00-.041 7.604c-.008 2.44 0 4.79.017 7.033a.68.68 0 01-.326.62l-6.886 4.128a.671.671 0 01-.4.13.69.69 0 01-.685-.684c0-.188-.05-.343-.147-.44-.065-.082-.18-.131-.326-.131h-1.159a.497.497 0 00-.334.139.499.499 0 00-.14.334v2.179a.677.677 0 01-.334.587l-3.891 2.341a.745.745 0 01-.4.123.684.684 0 01-.685-.686c0-.269-.024-.522-.114-.677l-.008-.024c-.05-.082-.155-.14-.35-.14h-1.16a.462.462 0 00-.334.14.482.482 0 00-.139.334v2.456a.697.697 0 01-.335.587l-8.762 5.254h.002zm15.231 20.559a.687.687 0 01.538-.555l-.538.555z" fill="#fff"/></svg>