<svg width="145" height="50" fill="none" xmlns="http://www.w3.org/2000/svg"><path d="M143.483 34.69h-5.048v-1.465L128.174 8.958v-3.91c0-.488-.489-.976-.977-.976h-43.81V.977c0-.488-.49-.977-.978-.977H72.15c-.489 0-.978.489-.978.977v3.095h-18.24V.977c0-.488-.489-.977-.977-.977h-10.26c-.49 0-.978.489-.978.977v3.095H17.263c-.488 0-.977.488-.977.977v3.909L6.026 33.225v1.465H.977c-.488 0-.977.489-.977.977v4.072c0 .489.489.977.977.977h4.072c.488 0 .977-.488.977-.977v-.977h6.84c-1.14 1.14-1.792 2.769-1.792 4.56 0 3.583 2.931 6.678 6.678 6.678 2.443 0 4.723-1.465 5.863-3.42l.163.162c.162.162.488.326.65.326h8.144c.326 0 .488-.163.65-.326l.163-.163C34.525 48.697 36.642 50 39.25 50c3.582 0 6.677-2.931 6.677-6.678 0-1.791-.65-3.42-1.791-4.56H45.6l5.863 5.863c.163.163.489.326.651.326h10.261c.326 0 .489-.162.651-.326l5.863-5.863h7.329l5.863 5.863c.162.163.488.326.65.326h10.262c.326 0 .488-.162.65-.326l5.864-5.863h.98c-1.14 1.14-1.791 2.769-1.791 4.56 0 3.583 2.931 6.678 6.677 6.678 2.443 0 4.723-1.465 5.863-3.42l.163.162c.162.162.488.326.651.326h7.98c.327 0 .489-.163.651-.326l.163-.163c1.141 2.118 3.257 3.421 5.863 3.421 3.583 0 6.678-2.931 6.678-6.678 0-1.791-.651-3.42-1.792-4.56h6.841v.977c0 .489.488.977.977.977h4.071c.489 0 .977-.488.977-.977v-4.072c.001-.488-.487-.977-.976-.977zM4.071 37.785v.977H1.953v-2.117h2.118v1.14zm131.758-5.048h-11.727V13.68l2.769-2.768 8.958 21.824zm-19.87-4.072v-2.118h6.189v2.118h-6.189zm6.189 1.954v2.118h-6.189v-2.118h6.189zm-6.189-6.026v-2.117h6.189v2.117h-6.189zm1.466-4.071l4.56-4.723v4.723h-4.56zm-1.466-1.467v-8.632h8.632l-2.118 2.28-6.514 6.352zM73.289 2.118h8.143v2.117h-8.144V2.118zm-30.62 0h8.144v2.117H42.67V2.118zM18.24 6.189h107.98v2.118H18.24V6.189zm92.019 21.335l3.583-3.583v7.329l-3.583-3.746zm2.28 5.213h-7.167l3.583-3.583 3.584 3.583zm-8.794-1.467V10.423h10.26v10.75l-10.26 10.097zm-1.954-20.847v22.312h-8.144V10.423h8.144zm-10.261 0v22.312h-8.143V10.423h8.143zm-10.097 0v22.312h-8.144V10.423h8.144zm-10.261 0v22.312h-8.143V10.423h8.143zm-10.097 0v22.312H52.93V10.423h8.144zm-10.261 0v22.312H42.67V10.423h8.144zM35.504 28.99l3.583 3.583H31.76l3.745-3.583zm-5.048 2.28v-7.33l3.583 3.583-3.583 3.746zm0-10.26V10.425h10.26V31.27l-10.26-10.26zm-8.144 7.655v-2.118h6.19v2.118h-6.19zm6.19 1.954v2.117h-6.19V30.62h6.19zm-6.19-6.026v-2.117h6.19v2.117h-6.19zm0-4.071v-4.723l4.723 4.723h-4.723zM19.87 10.423h8.632v8.632l-8.632-8.632zm-2.28.652l2.606 2.769v14.82h-2.118c-.326 0-.814.163-.977.49l-1.791 3.582H8.307l9.283-21.66zm2.768 19.544v2.117h-2.442l.977-2.117h1.465zm-2.606 17.263c-2.606 0-4.56-2.117-4.56-4.56 0-2.443 2.118-4.56 4.56-4.56 1.14 0 2.118.326 2.769.977h-1.303c-.489 0-.815.326-.977.65v.327h-.977c-.489 0-.977.488-.977.977 0 .326.162.488.326.65a1.246 1.246 0 00-.326.815c0 .815.65 1.466 1.465 1.466a1.46 1.46 0 001.466-1.466c0-.162 0-.326-.163-.488h.651l2.118 2.117c-.489 1.956-2.118 3.095-4.072 3.095zm6.678-3.42l-2.606-2.606h2.606v2.606zm6.026.489h-4.072v-3.095h4.072v3.095zm.977-5.212h-8.307c-.162-.326-.488-.651-.815-.977h11.89c-.327.326-.49.65-.815.977h-1.953zm1.14 4.723v-2.606h2.606l-2.606 2.606zm6.514 3.42c-1.954 0-3.583-1.303-4.234-2.931l2.117-2.118h.65c0 .163-.162.327-.162.489 0 .814.651 1.465 1.466 1.465.814 0 1.465-.65 1.465-1.465 0-.326-.162-.651-.326-.815.163-.162.326-.488.326-.65 0-.49-.488-.978-.977-.978H38.6v-.326c-.163-.326-.489-.65-.977-.65H36.32a4.426 4.426 0 012.768-.978c2.606 0 4.56 2.118 4.56 4.56 0 2.443-1.953 4.397-4.56 4.397zm22.476-5.048h-9.284l-4.072-4.072h17.428l-4.072 4.072zm30.619 0h-9.284l-4.072-4.072h17.427l-4.071 4.072zm13.029 5.048c-2.606 0-4.56-2.118-4.56-4.56 0-2.443 2.117-4.56 4.56-4.56 1.141 0 2.118.326 2.769.977h-1.303c-.489 0-.815.326-.978.65v.327h-.977c-.488 0-.977.488-.977.977 0 .326.163.488.327.65-.164.49-.327.653-.327.979 0 .814.651 1.465 1.466 1.465s1.466-.65 1.466-1.465c0-.163 0-.326-.163-.489h.651l2.118 2.118c-.325 1.791-2.117 2.931-4.072 2.931zm6.678-3.42l-2.606-2.606h2.606v2.606zm6.189.489h-4.072v-3.095h4.072v3.095zm.977-5.212h-8.307c-.162-.326-.488-.651-.814-.977h11.889c-.327.326-.489.65-.815.977h-1.953zm.977 4.723v-2.606h2.606l-2.606 2.606zm6.678 3.42c-1.954 0-3.583-1.303-4.235-2.931l2.118-2.118h.651c0 .163-.162.326-.162.489 0 .814.651 1.465 1.465 1.465.815 0 1.466-.65 1.466-1.465 0-.326-.163-.651-.326-.815.162-.162.326-.488.326-.65 0-.49-.489-.978-.977-.978h-.977v-.326c-.163-.326-.489-.65-.977-.65h-1.303a4.423 4.423 0 012.768-.978c2.606 0 4.56 2.118 4.56 4.56a4.38 4.38 0 01-4.397 4.397zm9.608-11.074H8.144V34.69h128.174v2.118zm6.19 1.954h-2.118v-2.118h2.118v2.118z" fill="#fff"/></svg>