<svg width="130" height="60" fill="none" xmlns="http://www.w3.org/2000/svg"><path d="M109.927 48.085c1.985 0 3.687 1.56 3.687 3.688 0 1.985-1.56 3.687-3.687 3.687-1.986 0-3.688-1.56-3.688-3.687 0-1.986 1.702-3.688 3.688-3.688zm0 6.099a2.541 2.541 0 002.552-2.553 2.541 2.541 0 00-2.552-2.553 2.542 2.542 0 00-2.553 2.553 2.543 2.543 0 002.553 2.553zm0-10.922c4.681 0 8.368 3.83 8.368 8.368 0 4.68-3.83 8.368-8.368 8.368-4.681 0-8.369-3.83-8.369-8.368-.141-4.538 3.688-8.369 8.369-8.369zm0 15.177a6.66 6.66 0 006.666-6.666 6.66 6.66 0 00-6.666-6.667 6.66 6.66 0 00-6.667 6.667 6.66 6.66 0 006.667 6.666zM33.9 48.085c1.985 0 3.687 1.56 3.687 3.688 0 1.985-1.56 3.687-3.687 3.687-1.986 0-3.688-1.56-3.688-3.687.141-1.986 1.702-3.688 3.688-3.688zm0 6.099a2.542 2.542 0 002.552-2.553 2.542 2.542 0 00-2.552-2.553 2.542 2.542 0 00-2.553 2.553c.141 1.418 1.135 2.553 2.553 2.553zm-19.716-6.1c1.985 0 3.687 1.561 3.687 3.689 0 1.985-1.56 3.687-3.687 3.687-1.986 0-3.688-1.56-3.688-3.687.141-1.986 1.702-3.688 3.688-3.688zm0 6.1a2.542 2.542 0 002.552-2.553 2.542 2.542 0 00-2.553-2.553 2.542 2.542 0 00-2.552 2.553c.141 1.418 1.135 2.553 2.553 2.553zm73.19-3.546h10.071v1.134H87.374v-1.134zm1.419-19.007c-.994 0-1.845-.85-1.845-1.986v-7.233c0-1.135.851-1.986 1.986-1.986h7.66c1.134 0 1.843.85 2.126 1.702l2.553 8.085v.142c0 1.134-.851 1.985-1.986 1.985l-10.494-.709zm11.205-.993l-2.553-8.086c-.284-.71-.71-.993-1.135-.993h-7.659c-.425 0-.85.425-.85.85v7.234c0 .426.425.851.85.851l10.497.851c.424.002.85-.28.85-.707zM68.65 7.66h8.368c1.135 0 1.986.85 1.986 1.985v3.546c0 1.135-.851 1.986-1.986 1.986H68.65c-1.135 0-1.986-.85-1.986-1.986V9.645c0-1.135.852-1.985 1.986-1.985zm-.85 5.53c0 .426.425.851.85.851h8.37c.425 0 .85-.425.85-.85V9.644c0-.425-.425-.85-.85-.85h-8.37c-.425 0-.85.425-.85.85v3.546zm22.695 25.532h-3.12v-1.135h3.12v1.135zm-16.17-16.738h-2.127V20.85h2.695c.141 0 .284 0 .425.142.142.141.142.284.142.425v7.802h-1.135v-7.234zM.284 47.8l4.965-3.262.284-.141h4.539c1.276-.71 2.553-1.135 4.113-1.135 1.56 0 2.836.425 4.113 1.135h.141l9.504-5.816.567.993-7.943 4.965h9.078c1.276-.71 2.552-1.135 4.113-1.135 1.56 0 2.836.426 4.112 1.135h16.74V29.36c0-.142 0-.284.14-.426.142-.141.285-.141.426-.141h1.844V.85c0-.426.284-.851.851-.851h1.277c3.546 0 13.9.425 26.95 5.39 7.233 2.695 11.205 4.965 13.333 6.526 2.127 1.56 2.837 2.836 2.837 2.836.425.567.709 1.56.993 2.553l.567 1.985c.141.284 0 .567-.142.71a1.082 1.082 0 01-.709.284h-2.127l4.113 8.368c2.411.284 13.333 1.702 21.418 5.958.425.284.566.566.566.709 0 0 2.128 6.808 2.128 12.34v5.39c0 .284-.142.426-.284.567-.142.142-.426.284-.567.284h-8.227c-.284 0-.425-.141-.567-.284-.141-.141-.284-.425-.284-.567v-1.276c0-5.106-4.113-9.22-9.362-9.362-5.106 0-9.219 4.113-9.362 9.362v2.695c0 .284-.141.426-.283.567-.142.142-.426.284-.567.284H57.728c-.284 0-.425-.142-.567-.284H50.92c-.142 0-.284 0-.425-.141-.142-.142-.142-.284-.142-.426v-1.986h-8.085C41.842 56.738 38.296 60 33.899 60s-7.943-3.262-8.368-7.518h-2.98C22.127 56.738 18.58 60 14.184 60s-7.943-3.262-8.368-7.518H.567c-.142 0-.284 0-.426-.141C0 52.199 0 52.057 0 51.915v-3.687c0-.144.142-.286.284-.428zm120.565 3.972v.425h6.525v-4.255h-7.092c.426 1.277.567 2.553.567 3.83zm-61.985 1.844h40v-1.844c0-1.276.284-2.553.71-3.688h-40.71v5.532zm0-6.666h41.134a11.358 11.358 0 012.128-2.98V33.9h1.134v9.22c1.845-1.42 4.113-2.27 6.526-2.27 4.397 0 8.085 2.552 9.928 6.098h7.659c-.141-4.255-1.56-9.362-1.844-10.638-4.255-2.27-9.503-3.688-13.617-4.54-4.256-.85-7.376-1.134-7.376-1.276a.782.782 0 01-.71-.425l-4.822-10.071v-.284c-.425-.284-1.986-.851-5.673-.851H64.253V43.4H83.26V20.848h1.135V43.4h14.893v1.135H58.863l.001 2.415zm0-3.689h4.256v-32.34h1.135v6.667h29.077c4.113 0 5.673.71 6.383 1.135h2.411c-.141-.284-.141-.567-.284-.851-.141-.426-.284-.994-.425-1.42-.142-.14-.142-.425-.142-.425v-.141c-.425-.425-.425-.993-2.553-2.553-1.985-1.418-5.815-3.546-13.049-6.241-12.908-4.822-23.12-5.39-26.383-5.39h-.283v41.56h-.143zM57.161 29.93h-1.276v14.467h1.276V29.929zM51.63 53.9h5.531v-1.42H51.63v1.42zm0-2.41h5.531v-5.817H51.63v5.816zm-9.362 0h8.085v-5.96h-10.78c1.702 1.419 2.695 3.546 2.695 5.957zm-8.369 6.95a6.66 6.66 0 006.667-6.667 6.66 6.66 0 00-6.667-6.667 6.66 6.66 0 00-6.666 6.667 6.66 6.66 0 006.666 6.667zm-11.347-6.95h2.979a9.288 9.288 0 012.695-5.958h-8.368c1.56 1.419 2.694 3.546 2.694 5.957zm-8.369 6.95a6.66 6.66 0 006.667-6.667 6.66 6.66 0 00-6.667-6.667 6.66 6.66 0 00-6.666 6.667 6.66 6.66 0 006.666 6.667zM1.134 51.49h4.68a9.288 9.288 0 012.696-5.96H5.673l-4.539 3.12v2.837z" fill="#fff"/></svg>