<svg width="30" height="30" fill="none" xmlns="http://www.w3.org/2000/svg"><g clip-path="url(#clip0_1_21)" fill="#1CC364"><path d="M28.944 17.366c.895-7.534-.43-12.29-2.82-14.441l.001-.001C22.267-.75 9.24-1.294 4.625 3.089c-2.072 2.143-2.802 5.29-2.882 9.185-.08 3.896-.175 11.195 6.626 13.175h.006l-.006 3.023s-.046 1.225.736 1.472c.895.29 1.3-.28 4.084-3.604 4.655.404 8.23-.521 8.636-.656.94-.315 6.259-1.02 7.119-8.318zm-15.296 6.846S10.7 27.886 9.785 28.84c-.3.31-.629.281-.624-.334 0-.404.023-5.02.023-5.02-5.766-1.652-5.426-7.867-5.364-11.119.063-3.252.658-5.916 2.413-7.71 4.048-3.796 15.47-2.947 18.38-.212 3.557 3.154 2.29 12.064 2.298 12.367-.731 6.093-5.041 6.48-5.834 6.743-.338.112-3.482.921-7.43.657z"/><path d="M15.277 5.371c-.48 0-.48.75 0 .757 3.734.028 6.81 2.63 6.843 7.405 0 .503.738.497.731-.007-.04-5.143-3.398-8.126-7.573-8.155z"/><path d="M20.189 12.741c-.012.498.725.521.731.018.061-2.836-1.688-5.173-4.974-5.419-.481-.035-.531.721-.051.756 2.85.217 4.351 2.162 4.294 4.645zm-.788 3.226c-.617-.357-1.246-.135-1.506.217l-.544.703c-.276.358-.792.31-.792.31-3.768-.996-4.775-4.938-4.775-4.938s-.046-.534.298-.82l.68-.563c.34-.27.556-.92.21-1.559-.926-1.67-1.547-2.247-1.863-2.69-.333-.416-.833-.51-1.353-.228h-.011C8.664 7.03 7.48 8.215 7.859 9.434c.646 1.285 1.833 5.38 5.618 8.476 1.78 1.464 4.594 2.964 5.79 3.31l.01.017c1.178.393 2.323-.837 2.934-1.95v-.01c.272-.538.181-1.048-.215-1.382-.702-.685-1.762-1.441-2.595-1.928z"/><path d="M16.461 10.13c1.202.07 1.784.698 1.847 1.986.022.504.753.47.73-.035-.08-1.682-.957-2.62-2.537-2.707-.481-.029-.526.727-.04.756z"/></g><defs><clipPath id="clip0_1_21"><path fill="#fff" d="M0 0h30v30H0z"/></clipPath></defs></svg>