<svg width="30" height="30" fill="none" xmlns="http://www.w3.org/2000/svg"><path fill-rule="evenodd" clip-rule="evenodd" d="M24.949 5.01A13.846 13.846 0 0015.09.923C7.408.923 1.156 7.175 1.153 14.859a13.912 13.912 0 001.86 6.967l-1.977 7.222 7.389-1.938a13.922 13.922 0 006.66 1.696h.005c7.681 0 13.934-6.252 13.937-13.936a13.851 13.851 0 00-4.078-9.86zM15.09 26.452h-.005a11.57 11.57 0 01-5.895-1.614l-.423-.251-4.384 1.15 1.17-4.275-.276-.438a11.555 11.555 0 01-1.77-6.165C3.508 8.473 8.704 3.277 15.094 3.277a11.504 11.504 0 018.19 3.397 11.52 11.52 0 013.389 8.195c-.003 6.387-5.2 11.584-11.584 11.584zm6.354-8.675c-.348-.175-2.06-1.017-2.38-1.133-.319-.116-.55-.174-.783.174-.232.349-.9 1.133-1.103 1.366-.203.232-.406.261-.754.087-.348-.175-1.47-.542-2.8-1.729-1.036-.923-1.735-2.063-1.938-2.412-.203-.349-.002-.519.153-.71.377-.469.755-.96.87-1.192.117-.232.059-.436-.029-.61-.086-.174-.783-1.888-1.073-2.586-.283-.678-.57-.587-.784-.597a13.93 13.93 0 00-.667-.012c-.232 0-.61.087-.929.435-.319.35-1.218 1.191-1.218 2.905 0 1.714 1.247 3.37 1.421 3.603.175.232 2.456 3.75 5.95 5.258.83.359 1.479.573 1.984.733.835.265 1.594.228 2.194.138.669-.1 2.06-.842 2.35-1.655.29-.814.29-1.511.203-1.656-.087-.146-.319-.233-.667-.407z" fill="#1CC364"/></svg>